<svg width="175" height="60" viewBox="0 0 175 60" fill="none" xmlns="http://www.w3.org/2000/svg">
<g clip-path="url(#clip0_224_43559)">
<path d="M29.0675 2.83976V44.3696C29.0675 45.0829 28.6893 45.7429 28.074 46.0995L26.1615 47.2094L24.2489 46.0995C23.6336 45.7429 23.2554 45.0829 23.2554 44.3696V2.83976C23.2554 2.12649 23.6336 1.46654 24.2489 1.10991L26.1615 0L28.074 1.10991C28.6893 1.46654 29.0675 2.12649 29.0675 2.83976Z" fill="url(#paint0_linear_224_43559)"/>
<path d="M52.3194 17.7749V42.9211C52.3194 44.531 51.4651 46.0175 50.0768 46.8225L28.4006 59.3964C27.0123 60.2014 25.3038 60.2014 23.9154 59.3964L2.24259 46.8225C0.8559 46.0175 0 44.531 0 42.9211V17.7749C0 16.165 0.854241 14.6785 2.24259 13.8735L5.81382 11.8021V39.5514C5.81382 41.1613 6.66806 42.6478 8.05641 43.4528L26.1597 53.9535L44.2646 43.4528C45.653 42.6478 46.5072 41.1613 46.5072 39.5514V21.1479C46.5072 19.5381 45.653 18.0499 44.2646 17.2466L35.8748 12.3803C35.2594 12.0237 34.8812 11.3638 34.8812 10.6505V5.05762L50.0784 13.8719C51.4668 14.6768 52.321 16.1634 52.321 17.7732L52.3194 17.7749Z" fill="url(#paint1_linear_224_43559)"/>
<path d="M17.4398 8.18233V42.1512L13.8686 40.0797C12.4819 39.2747 11.626 37.7882 11.626 36.1783V14.1535C11.626 12.5436 12.4802 11.0554 13.8686 10.2505L17.4381 8.18066L17.4398 8.18233Z" fill="url(#paint2_linear_224_43559)"/>
<path d="M40.6935 24.5194V36.1768C40.6935 37.7867 39.8393 39.2749 38.4509 40.0798L34.8813 42.1496V18.5449L38.4526 20.6164C39.8393 21.4213 40.6952 22.9079 40.6952 24.5178L40.6935 24.5194Z" fill="url(#paint3_linear_224_43559)"/>
<path d="M79.9087 42.2679C76.6908 42.2679 74.6506 40.9997 73.667 38.3933L64.1675 13.0537H70.4491L78.9699 35.7285C79.1441 36.1968 79.4178 36.3884 79.9087 36.3884C80.3184 36.3884 80.6037 36.2801 80.8492 35.7235L89.7848 13.0537H96.1144L86.1074 38.3999C85.0508 41.0747 83.1399 42.2679 79.9087 42.2679Z" fill="url(#paint4_linear_224_43559)"/>
<path d="M113.478 42.2679L104.957 19.5932C104.783 19.1249 104.509 18.9332 104.018 18.9332C103.527 18.9332 103.247 19.1265 103.036 19.5982L94.1422 42.2679H87.854L97.8196 16.9217C98.8762 14.2469 100.8 13.0537 104.058 13.0537C107.316 13.0537 109.202 14.2486 110.217 16.9284L119.803 42.2696H113.478V42.2679Z" fill="url(#paint5_linear_224_43559)"/>
<path d="M149.82 42.2696V36.5134H165.857C168.031 36.5134 169.229 35.4418 169.229 33.4953C169.229 32.1838 168.721 29.9823 165.323 29.9823H158.88C155.4 29.9823 152.824 29.069 151.225 27.2675C149.966 25.8493 149.328 23.9078 149.328 21.498C149.328 18.9382 150.043 16.9051 151.454 15.4552C153.005 13.862 155.339 13.0537 158.388 13.0537H172.865V18.8099H158.223C155.606 18.8099 155.055 20.3614 155.055 21.663C155.055 23.5828 156.253 24.5161 158.714 24.5161H165.198C168.741 24.5161 171.377 25.5293 173.027 27.5275C174.288 29.0524 174.955 31.1739 174.955 33.662C174.955 36.1501 174.225 38.3416 172.787 39.8181C171.201 41.4463 168.814 42.2713 165.689 42.2713H149.817L149.82 42.2696Z" fill="url(#paint6_linear_224_43559)"/>
<path d="M140.346 42.2696L134.602 31.0139H127.396V42.2696H121.667V13.0537H137.088C140.109 13.0537 142.567 13.9636 144.201 15.6868C145.664 17.23 146.437 19.3532 146.437 21.828C146.437 23.3162 146.06 28.3224 141.212 30.2956L140.764 30.4773L146.715 42.2696H140.348H140.346ZM127.396 25.4643H137.252C140.42 25.4643 140.666 22.8396 140.666 22.0346C140.666 21.278 140.42 18.8116 137.252 18.8116H127.396V25.4643Z" fill="url(#paint7_linear_224_43559)"/>
<path d="M175 50.7236H128.644V51.7169H175V50.7236Z" fill="url(#paint8_linear_224_43559)"/>
<path d="M110.522 50.7236H64.166V51.7169H110.522V50.7236Z" fill="url(#paint9_linear_224_43559)"/>
<path d="M116.825 48.309C117.175 48.309 117.474 48.349 117.721 48.4273C117.968 48.5056 118.172 48.6173 118.333 48.7606C118.494 48.9039 118.612 49.0723 118.686 49.2656C118.761 49.4589 118.801 49.6689 118.801 49.8972C118.801 50.2488 118.729 50.5338 118.587 50.7538C118.444 50.9738 118.235 51.1421 117.961 51.2588C118.242 51.3754 118.454 51.5471 118.6 51.772C118.746 51.997 118.819 52.2887 118.819 52.647C118.819 52.8703 118.781 53.0769 118.706 53.2703C118.63 53.4636 118.514 53.6319 118.356 53.7752C118.199 53.9185 117.996 54.0319 117.749 54.1135C117.502 54.1952 117.202 54.2368 116.853 54.2368H113.871V53.2003H116.853C117.157 53.2003 117.381 53.1353 117.527 53.0019C117.673 52.8703 117.746 52.6836 117.746 52.4437C117.746 51.9687 117.446 51.732 116.845 51.732H115.026V50.7921H116.819C117.122 50.7921 117.348 50.7355 117.497 50.6205C117.646 50.5055 117.719 50.3255 117.719 50.0805C117.719 49.8572 117.65 49.6789 117.51 49.5439C117.369 49.4089 117.142 49.3422 116.829 49.3422H113.881V48.3057H116.829L116.825 48.309Z" fill="url(#paint10_linear_224_43559)"/>
<path d="M122.597 48.3086C123.467 48.3086 124.127 48.5519 124.578 49.0385C125.029 49.5252 125.256 50.2718 125.256 51.2783C125.256 52.2849 125.031 53.0232 124.578 53.5098C124.125 53.9965 123.467 54.2398 122.597 54.2398H120.516C120.189 54.2398 120.026 54.0781 120.026 53.7565V48.7919C120.026 48.4702 120.189 48.3086 120.516 48.3086H122.597ZM121.058 53.0965C121.058 53.1665 121.096 53.2015 121.173 53.2015H122.597C123.168 53.2015 123.583 53.0499 123.838 52.7449C124.094 52.4399 124.223 51.9483 124.223 51.2683C124.223 50.5884 124.095 50.0984 123.843 49.7968C123.589 49.4952 123.175 49.3435 122.597 49.3435H121.173C121.096 49.3435 121.058 49.3785 121.058 49.4485V53.0949V53.0965Z" fill="url(#paint11_linear_224_43559)"/>
</g>
<defs>
<linearGradient id="paint0_linear_224_43559" x1="23.2537" y1="23.6047" x2="29.0675" y2="23.6047" gradientUnits="userSpaceOnUse">
<stop stop-color="#EC2724"/>
<stop offset="1" stop-color="#BC2126"/>
</linearGradient>
<linearGradient id="paint1_linear_224_43559" x1="0" y1="32.5287" x2="52.3194" y2="32.5287" gradientUnits="userSpaceOnUse">
<stop stop-color="#EC2724"/>
<stop offset="1" stop-color="#BC2126"/>
</linearGradient>
<linearGradient id="paint2_linear_224_43559" x1="11.626" y1="25.1659" x2="17.4398" y2="25.1659" gradientUnits="userSpaceOnUse">
<stop stop-color="#EC2724"/>
<stop offset="1" stop-color="#BC2126"/>
</linearGradient>
<linearGradient id="paint3_linear_224_43559" x1="34.8797" y1="30.3473" x2="40.6935" y2="30.3473" gradientUnits="userSpaceOnUse">
<stop stop-color="#EC2724"/>
<stop offset="1" stop-color="#BC2126"/>
</linearGradient>
<linearGradient id="paint4_linear_224_43559" x1="64.1658" y1="27.6608" x2="96.1144" y2="27.6608" gradientUnits="userSpaceOnUse">
<stop stop-color="#EC2724"/>
<stop offset="1" stop-color="#BC2126"/>
</linearGradient>
<linearGradient id="paint5_linear_224_43559" x1="87.8557" y1="27.6608" x2="119.804" y2="27.6608" gradientUnits="userSpaceOnUse">
<stop stop-color="#EC2724"/>
<stop offset="1" stop-color="#BC2126"/>
</linearGradient>
<linearGradient id="paint6_linear_224_43559" x1="149.328" y1="27.6608" x2="174.96" y2="27.6608" gradientUnits="userSpaceOnUse">
<stop stop-color="#EC2724"/>
<stop offset="1" stop-color="#BC2126"/>
</linearGradient>
<linearGradient id="paint7_linear_224_43559" x1="121.667" y1="27.6608" x2="146.714" y2="27.6608" gradientUnits="userSpaceOnUse">
<stop stop-color="#EC2724"/>
<stop offset="1" stop-color="#BC2126"/>
</linearGradient>
<linearGradient id="paint8_linear_224_43559" x1="128.644" y1="51.2203" x2="175" y2="51.2203" gradientUnits="userSpaceOnUse">
<stop stop-color="#EC2724"/>
<stop offset="1" stop-color="#BC2126"/>
</linearGradient>
<linearGradient id="paint9_linear_224_43559" x1="64.166" y1="51.2203" x2="110.522" y2="51.2203" gradientUnits="userSpaceOnUse">
<stop stop-color="#EC2724"/>
<stop offset="1" stop-color="#BC2126"/>
</linearGradient>
<linearGradient id="paint10_linear_224_43559" x1="113.869" y1="51.2738" x2="118.819" y2="51.2738" gradientUnits="userSpaceOnUse">
<stop stop-color="#EC2724"/>
<stop offset="1" stop-color="#BC2126"/>
</linearGradient>
<linearGradient id="paint11_linear_224_43559" x1="120.026" y1="51.2733" x2="125.256" y2="51.2733" gradientUnits="userSpaceOnUse">
<stop stop-color="#EC2724"/>
<stop offset="1" stop-color="#BC2126"/>
</linearGradient>
<clipPath id="clip0_224_43559">
<rect width="175" height="60" fill="white"/>
</clipPath>
</defs>
</svg>
