<svg width="180" height="64" viewBox="0 0 180 64" fill="none" xmlns="http://www.w3.org/2000/svg">
<g clip-path="url(#clip0_3755_45977)">
<path d="M30.9278 3.02893V47.3267C30.9278 48.0883 30.5241 48.7914 29.8701 49.1714L27.8341 50.3556L25.7999 49.1714C25.1459 48.7914 24.7422 48.0883 24.7422 47.3267V3.02893C24.7422 2.26726 25.1459 1.56418 25.7999 1.18423L27.8341 0L29.8701 1.18423C30.5241 1.56418 30.9278 2.26904 30.9278 3.02893Z" fill="url(#paint0_linear_3755_45977)"/>
<path d="M55.6706 18.96V45.7819C55.6706 47.4988 54.761 49.086 53.2855 49.9436L30.2212 63.3554C28.744 64.2147 26.9266 64.2147 25.4494 63.3554L2.38505 49.9436C0.909598 49.0842 0 47.4988 0 45.7819V18.96C0 17.2432 0.909598 15.6559 2.38505 14.7983L6.18562 12.5879V42.1866C6.18562 43.9035 7.09522 45.4907 8.57067 46.3483L27.8344 57.5496L47.0982 46.3483C48.5754 45.4889 49.485 43.9035 49.485 42.1866V22.5571C49.485 20.8402 48.5754 19.253 47.0982 18.3954L38.1714 13.2058C37.5174 12.8258 37.1137 12.121 37.1137 11.3611V5.39551L53.2838 14.7983C54.761 15.6577 55.6706 17.2432 55.6706 18.96Z" fill="url(#paint1_linear_3755_45977)"/>
<path d="M18.5567 8.72852V44.9621L14.7561 42.7517C13.2807 41.8923 12.3711 40.3068 12.3711 38.59V15.0989C12.3711 13.382 13.2807 11.7947 14.7579 10.9372L18.5567 8.72852Z" fill="url(#paint2_linear_3755_45977)"/>
<path d="M43.2989 26.1544V38.5897C43.2989 40.3065 42.3893 41.8938 40.9121 42.7514L37.1133 44.96V19.7822L40.9139 21.9927C42.3893 22.852 43.2989 24.4375 43.2989 26.1544Z" fill="url(#paint3_linear_3755_45977)"/>
<path d="M83.0023 41.6245C79.8205 41.6245 77.8004 40.3674 76.8291 37.7824L67.4316 12.6543H73.6455L82.0734 35.1405C82.2461 35.6057 82.5158 35.7956 83.0023 35.7956C83.4078 35.7956 83.6898 35.6873 83.9331 35.1352L92.7717 12.6543H99.0331L89.1333 37.7895C88.088 40.442 86.1965 41.6245 83.0023 41.6245Z" fill="url(#paint4_linear_3755_45977)"/>
<path d="M117.316 41.6243L108.888 19.1381C108.715 18.6729 108.446 18.483 107.959 18.483C107.473 18.483 107.196 18.6747 106.988 19.1416L98.1916 41.6225H91.9707L101.828 16.4891C102.874 13.8366 104.777 12.6523 108 12.6523C111.222 12.6523 113.087 13.8366 114.092 16.4944L123.574 41.6225H117.318L117.316 41.6243Z" fill="url(#paint5_linear_3755_45977)"/>
<path d="M155.082 41.6245V35.9164H170.945C173.096 35.9164 174.281 34.8529 174.281 32.9247C174.281 31.6233 173.778 29.4413 170.417 29.4413H164.044C160.601 29.4413 158.054 28.5358 156.471 26.7479C155.225 25.3417 154.594 23.4171 154.594 21.0274C154.594 18.4885 155.302 16.4733 156.699 15.0352C158.234 13.455 160.541 12.6543 163.558 12.6543H177.878V18.3624H163.395C160.806 18.3624 160.261 19.8999 160.261 21.1907C160.261 23.094 161.446 24.019 163.882 24.019H170.295C173.801 24.019 176.406 25.0239 178.041 27.0053C179.289 28.518 179.948 30.622 179.948 33.0881C179.948 35.5542 179.227 37.7273 177.803 39.1921C176.234 40.806 173.872 41.6245 170.781 41.6245H155.08H155.082Z" fill="url(#paint6_linear_3755_45977)"/>
<path d="M145.372 41.6245L139.689 30.4639H132.562V41.6245H126.895V12.6543H142.15C145.138 12.6543 147.57 13.5562 149.185 15.2642C150.632 16.7929 151.396 18.9004 151.396 21.354C151.396 22.8295 151.024 27.7936 146.227 29.7502L145.785 29.9313L151.672 41.6245H145.372ZM132.562 24.96H142.312C145.446 24.96 145.689 22.3572 145.689 21.5582C145.689 20.809 145.446 18.3624 142.312 18.3624H132.562V24.96Z" fill="url(#paint7_linear_3755_45977)"/>
<path d="M179.998 50.3008H158.326V51.3625H179.998V50.3008Z" fill="url(#paint8_linear_3755_45977)"/>
<path d="M179.852 50.4482H158.473V51.2152H179.852V50.4482Z" fill="url(#paint9_linear_3755_45977)"/>
<path d="M89.0538 50.3008H67.3574V51.3625H89.0538V50.3008Z" fill="url(#paint10_linear_3755_45977)"/>
<path d="M88.9077 50.4482H67.5039V51.2152H88.9077V50.4482Z" fill="url(#paint11_linear_3755_45977)"/>
<path d="M94.8454 54.1901C93.4193 54.1901 92.7266 53.5598 92.7266 52.262C92.7266 50.9641 93.3841 50.4492 94.8578 50.4492H98.2159V49.787C98.2159 49.1052 97.7734 48.6986 97.0331 48.6986H93.1338V47.6777H97.0454C98.8716 47.6777 99.2542 48.8176 99.2542 49.7728V52.9704C99.2542 53.8705 99.0655 54.1901 98.0061 54.1901H94.8454ZM94.8842 51.2375C94.1421 51.2375 93.7648 51.5553 93.7648 52.1839C93.7648 52.8124 94.1527 53.1568 94.8578 53.1568H97.6994C98.0431 53.1568 98.2159 52.9899 98.2159 52.6614V51.2375H94.8824H94.8842Z" fill="url(#paint12_linear_3755_45977)"/>
<path d="M103.932 54.1901C102.111 54.1901 101.146 53.0645 101.146 50.9339C101.146 48.8034 102.109 47.6777 103.932 47.6777H107.267V48.6986H104.06C102.791 48.6986 102.225 49.3875 102.225 50.9339C102.225 52.4804 102.791 53.1568 104.06 53.1568H107.267V54.1901H103.932Z" fill="url(#paint13_linear_3755_45977)"/>
<path d="M111.152 54.1901C109.726 54.1901 109.033 53.5598 109.033 52.262C109.033 50.9641 109.691 50.4492 111.164 50.4492H114.523V49.787C114.523 49.1052 114.08 48.6986 113.34 48.6986H109.442V47.6777H113.354C115.18 47.6777 115.563 48.8176 115.563 49.7728V52.9704C115.563 53.8705 115.374 54.1901 114.315 54.1901H111.154H111.152ZM111.191 51.2375C110.449 51.2375 110.071 51.5553 110.071 52.1839C110.071 52.8124 110.459 53.1568 111.164 53.1568H114.006C114.35 53.1568 114.524 52.9899 114.524 52.6614V51.2375H111.191Z" fill="url(#paint14_linear_3755_45977)"/>
<path d="M120.24 54.1906C118.418 54.1906 117.455 53.0649 117.455 50.9344C117.455 48.8038 118.418 47.6782 120.24 47.6782H123.369V44.7256H124.446V51.4244C124.446 53.2602 123.66 54.1906 122.109 54.1906H120.24ZM120.369 48.6991C119.116 48.6991 118.534 49.4092 118.534 50.9344C118.534 52.4595 119.1 53.1572 120.369 53.1572H121.712C122.874 53.1572 123.369 52.6193 123.369 51.3605V48.6991H120.369Z" fill="url(#paint15_linear_3755_45977)"/>
<path d="M128.74 54.1903C126.914 54.1903 126.531 53.0505 126.531 52.0953V49.7747C126.531 48.8178 126.914 47.6797 128.74 47.6797H130.929C132.364 47.6797 133.061 48.3153 133.061 49.6203C133.061 50.9252 132.4 51.433 130.915 51.433H127.555V52.0704C127.555 52.7628 127.987 53.1588 128.738 53.1588H132.726V54.1921H128.738L128.74 54.1903ZM128.74 48.6988C128 48.6988 127.557 49.1054 127.557 49.7872V50.6571H130.878C131.638 50.6571 132.022 50.334 132.022 49.6984C132.022 49.0628 131.619 48.7006 130.915 48.7006H128.74V48.6988Z" fill="url(#paint16_linear_3755_45977)"/>
<path d="M144.963 54.1901V50.5078C144.963 49.3058 144.23 48.6968 142.781 48.6968H141.048V54.1883H139.971V48.6968H136.394C136.199 48.6968 136.082 48.8247 136.082 49.0377V54.1883H135.018V48.5868C135.018 47.8127 135.275 47.6777 135.818 47.6777H142.769C144.909 47.6777 146.04 48.656 146.04 50.5078V54.1901H144.963Z" fill="url(#paint17_linear_3755_45977)"/>
<path d="M149.569 56.9225L150.837 53.9451H150.614C149.89 53.9451 149.687 53.7249 149.483 53.2012L147.297 47.6777H148.416L150.415 52.6526C150.523 52.9473 150.641 53.029 150.96 53.029H151.235L153.527 47.6795H154.655L150.71 56.9243H149.569V56.9225Z" fill="url(#paint18_linear_3755_45977)"/>
</g>
<defs>
<linearGradient id="paint0_linear_3755_45977" x1="24.7422" y1="25.1778" x2="30.9278" y2="25.1778" gradientUnits="userSpaceOnUse">
<stop stop-color="#ED2724"/>
<stop offset="1" stop-color="#BD2126"/>
</linearGradient>
<linearGradient id="paint1_linear_3755_45977" x1="0" y1="34.6977" x2="55.6706" y2="34.6977" gradientUnits="userSpaceOnUse">
<stop stop-color="#ED2724"/>
<stop offset="1" stop-color="#BD2126"/>
</linearGradient>
<linearGradient id="paint2_linear_3755_45977" x1="12.3711" y1="26.8453" x2="18.5567" y2="26.8453" gradientUnits="userSpaceOnUse">
<stop stop-color="#ED2724"/>
<stop offset="1" stop-color="#BD2126"/>
</linearGradient>
<linearGradient id="paint3_linear_3755_45977" x1="37.1133" y1="32.3702" x2="43.2989" y2="32.3702" gradientUnits="userSpaceOnUse">
<stop stop-color="#ED2724"/>
<stop offset="1" stop-color="#BD2126"/>
</linearGradient>
<linearGradient id="paint4_linear_3755_45977" x1="67.4299" y1="27.1385" x2="99.0314" y2="27.1385" gradientUnits="userSpaceOnUse">
<stop stop-color="#ED2724"/>
<stop offset="1" stop-color="#BD2126"/>
</linearGradient>
<linearGradient id="paint5_linear_3755_45977" x1="91.9707" y1="27.1383" x2="123.574" y2="27.1383" gradientUnits="userSpaceOnUse">
<stop stop-color="#ED2724"/>
<stop offset="1" stop-color="#BD2126"/>
</linearGradient>
<linearGradient id="paint6_linear_3755_45977" x1="154.596" y1="27.1403" x2="179.95" y2="27.1403" gradientUnits="userSpaceOnUse">
<stop stop-color="#ED2724"/>
<stop offset="1" stop-color="#BD2126"/>
</linearGradient>
<linearGradient id="paint7_linear_3755_45977" x1="126.895" y1="27.1403" x2="151.672" y2="27.1403" gradientUnits="userSpaceOnUse">
<stop stop-color="#ED2724"/>
<stop offset="1" stop-color="#BD2126"/>
</linearGradient>
<linearGradient id="paint8_linear_3755_45977" x1="158.326" y1="50.8316" x2="180" y2="50.8316" gradientUnits="userSpaceOnUse">
<stop stop-color="#ED2724"/>
<stop offset="1" stop-color="#BD2126"/>
</linearGradient>
<linearGradient id="paint9_linear_3755_45977" x1="158.473" y1="50.8317" x2="179.854" y2="50.8317" gradientUnits="userSpaceOnUse">
<stop stop-color="#ED2724"/>
<stop offset="1" stop-color="#BD2126"/>
</linearGradient>
<linearGradient id="paint10_linear_3755_45977" x1="67.3574" y1="50.8316" x2="89.0521" y2="50.8316" gradientUnits="userSpaceOnUse">
<stop stop-color="#ED2724"/>
<stop offset="1" stop-color="#BD2126"/>
</linearGradient>
<linearGradient id="paint11_linear_3755_45977" x1="67.5039" y1="50.8317" x2="88.9077" y2="50.8317" gradientUnits="userSpaceOnUse">
<stop stop-color="#ED2724"/>
<stop offset="1" stop-color="#BD2126"/>
</linearGradient>
<linearGradient id="paint12_linear_3755_45977" x1="92.7266" y1="50.9339" x2="99.2559" y2="50.9339" gradientUnits="userSpaceOnUse">
<stop stop-color="#ED2724"/>
<stop offset="1" stop-color="#BD2126"/>
</linearGradient>
<linearGradient id="paint13_linear_3755_45977" x1="101.148" y1="50.9339" x2="107.269" y2="50.9339" gradientUnits="userSpaceOnUse">
<stop stop-color="#ED2724"/>
<stop offset="1" stop-color="#BD2126"/>
</linearGradient>
<linearGradient id="paint14_linear_3755_45977" x1="109.033" y1="50.9339" x2="115.563" y2="50.9339" gradientUnits="userSpaceOnUse">
<stop stop-color="#ED2724"/>
<stop offset="1" stop-color="#BD2126"/>
</linearGradient>
<linearGradient id="paint15_linear_3755_45977" x1="117.455" y1="49.4572" x2="124.446" y2="49.4572" gradientUnits="userSpaceOnUse">
<stop stop-color="#ED2724"/>
<stop offset="1" stop-color="#BD2126"/>
</linearGradient>
<linearGradient id="paint16_linear_3755_45977" x1="126.531" y1="50.9341" x2="133.061" y2="50.9341" gradientUnits="userSpaceOnUse">
<stop stop-color="#ED2724"/>
<stop offset="1" stop-color="#BD2126"/>
</linearGradient>
<linearGradient id="paint17_linear_3755_45977" x1="135.018" y1="50.9339" x2="146.04" y2="50.9339" gradientUnits="userSpaceOnUse">
<stop stop-color="#ED2724"/>
<stop offset="1" stop-color="#BD2126"/>
</linearGradient>
<linearGradient id="paint18_linear_3755_45977" x1="147.299" y1="52.2993" x2="154.655" y2="52.2993" gradientUnits="userSpaceOnUse">
<stop stop-color="#ED2724"/>
<stop offset="1" stop-color="#BD2126"/>
</linearGradient>
<clipPath id="clip0_3755_45977">
<rect width="180" height="64" fill="white"/>
</clipPath>
</defs>
</svg>
