<svg width="56" height="64" viewBox="0 0 56 64" fill="none" xmlns="http://www.w3.org/2000/svg">
<path d="M31.0949 3.02893V47.3267C31.0949 48.0883 30.6909 48.7914 30.0364 49.1714L27.9987 50.3556L25.9628 49.1714C25.3083 48.7914 24.9043 48.0883 24.9043 47.3267V3.02893C24.9043 2.26726 25.3083 1.56418 25.9628 1.18423L27.9987 0L30.0364 1.18423C30.6909 1.56418 31.0949 2.26904 31.0949 3.02893Z" fill="url(#paint0_linear_3755_45967)"/>
<path d="M55.8585 18.96V45.7819C55.8585 47.4988 54.9481 49.086 53.4715 49.9436L30.3884 63.3554C28.91 64.2147 27.0911 64.2147 25.6126 63.3554L2.52957 49.9436C1.05292 49.0842 0.142578 47.4988 0.142578 45.7819V18.96C0.142578 17.2432 1.05292 15.6559 2.52957 14.7983L6.33323 12.5879V42.1866C6.33323 43.9035 7.24357 45.4907 8.72022 46.3483L27.9996 57.5496L47.279 46.3483C48.7575 45.4889 49.6678 43.9035 49.6678 42.1866V22.5571C49.6678 20.8402 48.7575 19.253 47.279 18.3954L38.345 13.2058C37.6905 12.8258 37.2865 12.121 37.2865 11.3611V5.39551L53.4697 14.7983C54.9481 15.6577 55.8585 17.2432 55.8585 18.96Z" fill="url(#paint1_linear_3755_45967)"/>
<path d="M18.7141 8.72852V44.9621L14.9104 42.7516C13.4338 41.8923 12.5234 40.3068 12.5234 38.59V15.0989C12.5234 13.382 13.4338 11.7947 14.9122 10.9372L18.7141 8.72852Z" fill="url(#paint2_linear_3755_45967)"/>
<path d="M43.4778 26.1544V38.5897C43.4778 40.3065 42.5674 41.8938 41.089 42.7514L37.2871 44.96V19.7822L41.0908 21.9927C42.5674 22.852 43.4778 24.4375 43.4778 26.1544Z" fill="url(#paint3_linear_3755_45967)"/>
<defs>
<linearGradient id="paint0_linear_3755_45967" x1="24.9043" y1="25.1778" x2="31.0949" y2="25.1778" gradientUnits="userSpaceOnUse">
<stop stop-color="#ED2724"/>
<stop offset="1" stop-color="#BD2126"/>
</linearGradient>
<linearGradient id="paint1_linear_3755_45967" x1="0.142578" y1="34.6977" x2="55.8585" y2="34.6977" gradientUnits="userSpaceOnUse">
<stop stop-color="#ED2724"/>
<stop offset="1" stop-color="#BD2126"/>
</linearGradient>
<linearGradient id="paint2_linear_3755_45967" x1="12.5234" y1="26.8453" x2="18.7141" y2="26.8453" gradientUnits="userSpaceOnUse">
<stop stop-color="#ED2724"/>
<stop offset="1" stop-color="#BD2126"/>
</linearGradient>
<linearGradient id="paint3_linear_3755_45967" x1="37.2871" y1="32.3702" x2="43.4778" y2="32.3702" gradientUnits="userSpaceOnUse">
<stop stop-color="#ED2724"/>
<stop offset="1" stop-color="#BD2126"/>
</linearGradient>
</defs>
</svg>
