<svg width="112" height="40" viewBox="0 0 112 40" fill="none" xmlns="http://www.w3.org/2000/svg">
<g clip-path="url(#clip0_6700_4310)">
<path d="M19.2597 1.89308V29.5792C19.2597 30.0552 19.0083 30.4946 18.601 30.7321L17.3331 31.4722L16.0664 30.7321C15.6591 30.4946 15.4077 30.0552 15.4077 29.5792V1.89308C15.4077 1.41704 15.6591 0.977613 16.0664 0.740145L17.3331 0L18.601 0.740145C19.0083 0.977613 19.2597 1.41815 19.2597 1.89308Z" fill="url(#paint0_linear_6700_4310)"/>
<path d="M34.6677 11.8499V28.6136C34.6677 29.6866 34.1012 30.6786 33.1824 31.2146L18.8196 39.597C17.8997 40.1341 16.7679 40.1341 15.848 39.597L1.48524 31.2146C0.566433 30.6775 0 29.6866 0 28.6136V11.8499C0 10.7768 0.566433 9.78481 1.48524 9.24884L3.85196 7.86731V26.3665C3.85196 27.4395 4.41839 28.4316 5.3372 28.9675L17.3333 35.9684L29.3294 28.9675C30.2493 28.4305 30.8157 27.4395 30.8157 26.3665V14.0981C30.8157 13.025 30.2493 12.033 29.3294 11.497L23.7704 8.25348C23.3632 8.01601 23.1118 7.57547 23.1118 7.10054V3.37207L33.1813 9.24884C34.1012 9.78592 34.6677 10.7768 34.6677 11.8499Z" fill="url(#paint1_linear_6700_4310)"/>
<path d="M11.5561 5.45508V28.1011L9.18934 26.7195C8.27053 26.1825 7.7041 25.1915 7.7041 24.1185V9.43655C7.7041 8.3635 8.27053 7.37146 9.19044 6.8355L11.5561 5.45508Z" fill="url(#paint2_linear_6700_4310)"/>
<path d="M26.9638 16.3463V24.1184C26.9638 25.1915 26.3973 26.1835 25.4774 26.7195L23.1118 28.0999V12.3638L25.4785 13.7453C26.3973 14.2824 26.9638 15.2733 26.9638 16.3463Z" fill="url(#paint3_linear_6700_4310)"/>
<path d="M51.6396 26.0117C49.6581 26.0117 48.4012 25.2261 47.7953 23.6104L41.9443 7.90869H45.8128L51.06 21.9592C51.1675 22.25 51.3355 22.3687 51.6385 22.3687C51.8909 22.3687 52.0666 22.301 52.2181 21.9559L57.721 7.90869H61.6191L55.4564 23.6149C54.8054 25.2727 53.6287 26.0117 51.6396 26.0117Z" fill="url(#paint4_linear_6700_4310)"/>
<path d="M73.0051 26.0117L67.7579 11.9612C67.6503 11.6704 67.4824 11.5517 67.1794 11.5517C66.8764 11.5517 66.7041 11.6716 66.5745 11.9634L61.0979 26.0106H57.2251L63.3626 10.3056C64.0135 8.64773 65.198 7.90869 67.2046 7.90869C69.2113 7.90869 70.3727 8.64884 70.9984 10.3089L76.9021 26.0106H73.0062L73.0051 26.0117Z" fill="url(#paint5_linear_6700_4310)"/>
<path d="M96.5175 26.0116V22.4451H106.394C107.733 22.4451 108.471 21.7816 108.471 20.5754C108.471 19.762 108.158 18.3993 106.066 18.3993H102.097C99.9534 18.3993 98.3671 17.8334 97.3825 16.7171C96.6075 15.8382 96.2134 14.6353 96.2134 13.1417C96.2134 11.556 96.6547 10.2954 97.523 9.39773C98.478 8.41013 99.915 7.90967 101.793 7.90967H110.709V11.4761H101.692C100.08 11.4761 99.7415 12.4371 99.7415 13.2438C99.7415 14.4334 100.479 15.0115 101.995 15.0115H105.988C108.17 15.0115 109.792 15.6396 110.81 16.8768C111.587 17.8223 111.998 19.1361 111.998 20.6774C111.998 22.2188 111.549 23.577 110.663 24.4914C109.687 25.5 108.216 26.0116 106.292 26.0116H96.5164H96.5175Z" fill="url(#paint6_linear_6700_4310)"/>
<path d="M90.4711 26.0117L86.9331 19.0375H82.496V26.0117H78.9668V7.90869H88.4644C90.324 7.90869 91.8389 8.4724 92.8444 9.5399C93.7445 10.4953 94.221 11.8114 94.221 13.3449C94.221 14.2671 93.9893 17.3697 91.0024 18.5914L90.7269 18.7046L94.3922 26.0117H90.47H90.4711ZM82.496 15.5987H88.5654C90.5161 15.5987 90.6676 13.9719 90.6676 13.4736C90.6676 13.0054 90.5161 11.4763 88.5654 11.4763H82.496V15.5987Z" fill="url(#paint7_linear_6700_4310)"/>
<path d="M111.999 32.0617V31.4658H88.0099V32.0617H111.999Z" fill="url(#paint8_linear_6700_4310)"/>
<path d="M111.924 31.5488H88.0859V31.9794H111.924V31.5488Z" fill="url(#paint9_linear_6700_4310)"/>
<path d="M65.0215 32.0959V31.4346H41.9448V32.0959H65.0215Z" fill="url(#paint10_linear_6700_4310)"/>
<path d="M42.0244 32.0039H64.9414V31.5256L42.0244 31.5256V32.0039Z" fill="url(#paint11_linear_6700_4310)"/>
<path d="M69.7064 34.2689C68.2862 34.2689 67.5654 33.4742 67.5654 31.9057C67.5654 30.3373 68.2862 29.5352 69.7064 29.5352H71.5225V30.1885H69.7064C68.68 30.1885 68.2225 30.7183 68.2225 31.9057C68.2225 33.0931 68.68 33.6156 69.7064 33.6156H71.5225V34.2689H69.7064Z" fill="url(#paint12_linear_6700_4310)"/>
<path d="M81.5354 34.3543C80.9856 34.3543 80.6661 34.102 80.4644 33.5099L79.2554 30.3488C79.1822 30.1725 79.0442 30.068 78.8839 30.068C78.6695 30.068 78.5198 30.2285 78.5198 30.4596V34.2656H77.8628V30.4163C77.8628 29.7904 78.2173 29.4453 78.8616 29.4453C79.4136 29.4453 79.732 29.6976 79.9241 30.2876L81.1342 33.4498C81.2064 33.6239 81.3444 33.7231 81.5131 33.7231C81.7244 33.7231 81.8772 33.5616 81.8772 33.3389V30.4163C81.8772 29.7904 82.2296 29.4453 82.8686 29.4453C83.4227 29.4453 83.7358 29.6902 83.947 30.2907L85.4341 34.2667H84.7251L83.2698 30.3509C83.1955 30.1704 83.0575 30.0691 82.8898 30.0691C82.6797 30.0691 82.5332 30.2295 82.5332 30.4607V33.3759C82.5332 33.9975 82.1691 34.3543 81.5344 34.3543H81.5354Z" fill="url(#paint13_linear_6700_4310)"/>
<path d="M75.9847 34.2688L74.85 32.3574H73.4924C73.3502 32.3574 73.261 32.445 73.261 32.5875V34.2688H72.604V29.5361H75.1865C76.1206 29.5361 76.6789 30.0501 76.6789 30.9104C76.6789 31.1711 76.6089 32.0418 75.7024 32.2951L75.5708 32.3321L76.7033 34.2688H75.9837H75.9847ZM73.2621 31.7399H75.2173C75.8064 31.7399 76.0155 31.3125 76.0155 30.9462C76.0155 30.4861 75.7024 30.1884 75.2173 30.1884H73.2621V31.7399Z" fill="url(#paint14_linear_6700_4310)"/>
</g>
<defs>
<linearGradient id="paint0_linear_6700_4310" x1="15.4077" y1="15.7361" x2="19.2597" y2="15.7361" gradientUnits="userSpaceOnUse">
<stop stop-color="#ED2724"/>
<stop offset="1" stop-color="#BD2126"/>
</linearGradient>
<linearGradient id="paint1_linear_6700_4310" x1="0" y1="21.6859" x2="34.6677" y2="21.6859" gradientUnits="userSpaceOnUse">
<stop stop-color="#ED2724"/>
<stop offset="1" stop-color="#BD2126"/>
</linearGradient>
<linearGradient id="paint2_linear_6700_4310" x1="7.7041" y1="16.7781" x2="11.5561" y2="16.7781" gradientUnits="userSpaceOnUse">
<stop stop-color="#ED2724"/>
<stop offset="1" stop-color="#BD2126"/>
</linearGradient>
<linearGradient id="paint3_linear_6700_4310" x1="23.1118" y1="20.2313" x2="26.9638" y2="20.2313" gradientUnits="userSpaceOnUse">
<stop stop-color="#ED2724"/>
<stop offset="1" stop-color="#BD2126"/>
</linearGradient>
<linearGradient id="paint4_linear_6700_4310" x1="41.9454" y1="16.9602" x2="61.6202" y2="16.9602" gradientUnits="userSpaceOnUse">
<stop stop-color="#ED2724"/>
<stop offset="1" stop-color="#BD2126"/>
</linearGradient>
<linearGradient id="paint5_linear_6700_4310" x1="57.2251" y1="16.9602" x2="76.901" y2="16.9602" gradientUnits="userSpaceOnUse">
<stop stop-color="#ED2724"/>
<stop offset="1" stop-color="#BD2126"/>
</linearGradient>
<linearGradient id="paint6_linear_6700_4310" x1="96.2145" y1="16.9601" x2="112" y2="16.9601" gradientUnits="userSpaceOnUse">
<stop stop-color="#ED2724"/>
<stop offset="1" stop-color="#BD2126"/>
</linearGradient>
<linearGradient id="paint7_linear_6700_4310" x1="78.9679" y1="16.9602" x2="94.3933" y2="16.9602" gradientUnits="userSpaceOnUse">
<stop stop-color="#ED2724"/>
<stop offset="1" stop-color="#BD2126"/>
</linearGradient>
<linearGradient id="paint8_linear_6700_4310" x1="88.0109" y1="31.7643" x2="112" y2="31.7643" gradientUnits="userSpaceOnUse">
<stop stop-color="#ED2724"/>
<stop offset="1" stop-color="#BD2126"/>
</linearGradient>
<linearGradient id="paint9_linear_6700_4310" x1="88.0859" y1="31.7641" x2="111.925" y2="31.7641" gradientUnits="userSpaceOnUse">
<stop stop-color="#ED2724"/>
<stop offset="1" stop-color="#BD2126"/>
</linearGradient>
<linearGradient id="paint10_linear_6700_4310" x1="41.9458" y1="31.7641" x2="65.0215" y2="31.7641" gradientUnits="userSpaceOnUse">
<stop stop-color="#ED2724"/>
<stop offset="1" stop-color="#BD2126"/>
</linearGradient>
<linearGradient id="paint11_linear_6700_4310" x1="42.0254" y1="31.7642" x2="64.9424" y2="31.7642" gradientUnits="userSpaceOnUse">
<stop stop-color="#ED2724"/>
<stop offset="1" stop-color="#BD2126"/>
</linearGradient>
<linearGradient id="paint12_linear_6700_4310" x1="67.5665" y1="31.9026" x2="71.5236" y2="31.9026" gradientUnits="userSpaceOnUse">
<stop stop-color="#ED2724"/>
<stop offset="1" stop-color="#BD2126"/>
</linearGradient>
<linearGradient id="paint13_linear_6700_4310" x1="77.8628" y1="31.9003" x2="85.4341" y2="31.9003" gradientUnits="userSpaceOnUse">
<stop stop-color="#ED2724"/>
<stop offset="1" stop-color="#BD2126"/>
</linearGradient>
<linearGradient id="paint14_linear_6700_4310" x1="72.6051" y1="31.9025" x2="76.7044" y2="31.9025" gradientUnits="userSpaceOnUse">
<stop stop-color="#ED2724"/>
<stop offset="1" stop-color="#BD2126"/>
</linearGradient>
<clipPath id="clip0_6700_4310">
<rect width="112" height="40" fill="white"/>
</clipPath>
</defs>
</svg>
