<svg width="180" height="64" viewBox="0 0 180 64" fill="none" xmlns="http://www.w3.org/2000/svg">
<g clip-path="url(#clip0_3755_45974)">
<path d="M30.9524 3.02893V47.3267C30.9524 48.0883 30.5484 48.7914 29.8938 49.1714L27.8562 50.3556L25.8203 49.1714C25.1657 48.7914 24.7617 48.0883 24.7617 47.3267V3.02893C24.7617 2.26726 25.1657 1.56418 25.8203 1.18423L27.8562 0L29.8938 1.18423C30.5484 1.56418 30.9524 2.26904 30.9524 3.02893Z" fill="url(#paint0_linear_3755_45974)"/>
<path d="M55.7159 18.96V45.7819C55.7159 47.4988 54.8055 49.086 53.3289 49.9436L30.2458 63.3554C28.7674 64.2147 26.9485 64.2147 25.4701 63.3554L2.38699 49.9436C0.910338 49.0842 0 47.4988 0 45.7819V18.96C0 17.2432 0.910338 15.6559 2.38699 14.7983L6.19065 12.5879V42.1866C6.19065 43.9035 7.10099 45.4907 8.57764 46.3483L27.8571 57.5496L47.1365 46.3483C48.6149 45.4889 49.5252 43.9035 49.5252 42.1866V22.5571C49.5252 20.8402 48.6149 19.253 47.1365 18.3954L38.2024 13.2058C37.5479 12.8258 37.1439 12.121 37.1439 11.3611V5.39551L53.3271 14.7983C54.8055 15.6577 55.7159 17.2432 55.7159 18.96Z" fill="url(#paint1_linear_3755_45974)"/>
<path d="M18.5715 8.72852V44.9621L14.7679 42.7516C13.2912 41.8923 12.3809 40.3068 12.3809 38.59V15.0989C12.3809 13.382 13.2912 11.7947 14.7696 10.9372L18.5715 8.72852Z" fill="url(#paint2_linear_3755_45974)"/>
<path d="M43.3352 26.1544V38.5897C43.3352 40.3065 42.4248 41.8938 40.9464 42.7514L37.1445 44.96V19.7822L40.9482 21.9927C42.4248 22.852 43.3352 24.4375 43.3352 26.1544Z" fill="url(#paint3_linear_3755_45974)"/>
<path d="M82.9918 41.6182C79.8073 41.6182 77.7873 40.3611 76.8135 37.7761L67.4102 12.6533H73.6273L82.0603 35.1342C82.2331 35.5994 82.5031 35.7893 82.99 35.7893C83.3958 35.7893 83.678 35.681 83.9215 35.1289L92.7656 12.6533H99.0303L89.126 37.7832C88.0798 40.4357 86.1885 41.6182 82.9918 41.6182Z" fill="url(#paint4_linear_3755_45974)"/>
<path d="M117.329 41.6182L108.896 19.1373C108.724 18.6721 108.454 18.4822 107.967 18.4822C107.48 18.4822 107.203 18.6739 106.995 19.1409L98.1929 41.6164H91.9688L101.833 16.4883C102.879 13.8358 104.782 12.6533 108.007 12.6533C111.232 12.6533 113.099 13.8376 114.104 16.4936L123.592 41.6164H117.331L117.329 41.6182Z" fill="url(#paint5_linear_3755_45974)"/>
<path d="M155.118 41.6183V35.912H170.99C173.143 35.912 174.328 34.8503 174.328 32.9204C174.328 31.619 173.825 29.4387 170.463 29.4387H164.085C160.64 29.4387 158.09 28.5332 156.508 26.7471C155.262 25.3409 154.629 23.4163 154.629 21.0266C154.629 18.4894 155.338 16.4725 156.734 15.0362C158.269 13.456 160.578 12.6553 163.596 12.6553H177.925V18.3616H163.434C160.843 18.3616 160.299 19.8991 160.299 21.1899C160.299 23.0932 161.485 24.0182 163.921 24.0182H170.338C173.845 24.0182 176.452 25.0231 178.088 27.0028C179.337 28.5155 179.997 30.6176 179.997 33.0837C179.997 35.5498 179.275 37.723 177.851 39.186C176.283 40.7999 173.919 41.6183 170.826 41.6183H155.116H155.118Z" fill="url(#paint6_linear_3755_45974)"/>
<path d="M145.399 41.6182L139.713 30.4594H132.582V41.6182H126.91V12.6533H142.174C145.163 12.6533 147.597 13.5553 149.213 15.2632C150.66 16.7919 151.426 18.8976 151.426 21.3513C151.426 22.8267 151.054 27.7909 146.253 29.7457L145.81 29.9268L151.701 41.6182H145.397H145.399ZM132.582 24.9573H142.337C145.472 24.9573 145.715 22.3544 145.715 21.5573C145.715 20.808 145.472 18.3614 142.337 18.3614H132.582V24.9573Z" fill="url(#paint7_linear_3755_45974)"/>
<path d="M179.999 50.293H141.229V51.3511H179.999V50.293Z" fill="url(#paint8_linear_3755_45974)"/>
<path d="M179.853 50.4404H141.375V51.2057H179.853V50.4404Z" fill="url(#paint9_linear_3755_45974)"/>
<path d="M106.181 50.293H67.4121V51.3511H106.181V50.293Z" fill="url(#paint10_linear_3755_45974)"/>
<path d="M106.036 50.4404H67.5586V51.2057H106.036V50.4404Z" fill="url(#paint11_linear_3755_45974)"/>
<path d="M111.212 44.8535V54.1924H109.867V44.8535H111.212Z" fill="url(#paint12_linear_3755_45974)"/>
<path d="M117.43 47.449C119.104 47.449 119.764 48.3936 119.764 49.6701V52.8376C119.764 53.8087 119.51 54.1905 118.381 54.1905H115.248C113.662 54.1905 113.002 53.411 113.002 52.1345C113.002 50.8579 113.611 50.1939 115.26 50.1939H118.445V49.6826C118.445 49.1588 118.153 48.7505 117.416 48.7505H113.406V47.4473H117.428L117.43 47.449ZM118.445 52.5304V51.2663H115.285C114.574 51.2663 114.32 51.5592 114.32 52.0581C114.32 52.557 114.586 52.8748 115.258 52.8748H118.076C118.342 52.8748 118.445 52.7719 118.445 52.5304Z" fill="url(#paint13_linear_3755_45974)"/>
<path d="M125.373 47.449C127.643 47.449 128.748 48.5338 128.748 50.3981V54.1905H127.389V50.3981C127.389 49.3381 126.781 48.7505 125.371 48.7505H123.176C123.062 48.7505 123.012 48.8144 123.012 48.9422V54.1905H121.668V48.4948C121.668 47.7029 121.934 47.4473 122.607 47.4473H125.373V47.449Z" fill="url(#paint14_linear_3755_45974)"/>
<path d="M137.541 44.8533V51.3054C137.541 53.2459 136.679 54.1905 135.08 54.1905H133.228C131.439 54.1905 130.322 53.0915 130.322 50.8189C130.322 48.5463 131.439 47.4473 133.228 47.4473H136.185V44.8516H137.543L137.541 44.8533ZM136.183 51.2414V48.7522H133.353C132.199 48.7522 131.679 49.3648 131.679 50.8207C131.679 52.2765 132.199 52.8766 133.353 52.8766H134.685C135.763 52.8766 136.183 52.3919 136.183 51.2414Z" fill="url(#paint15_linear_3755_45974)"/>
</g>
<defs>
<linearGradient id="paint0_linear_3755_45974" x1="24.7617" y1="25.1778" x2="30.9524" y2="25.1778" gradientUnits="userSpaceOnUse">
<stop stop-color="#ED2724"/>
<stop offset="1" stop-color="#BD2126"/>
</linearGradient>
<linearGradient id="paint1_linear_3755_45974" x1="0" y1="34.6977" x2="55.7159" y2="34.6977" gradientUnits="userSpaceOnUse">
<stop stop-color="#ED2724"/>
<stop offset="1" stop-color="#BD2126"/>
</linearGradient>
<linearGradient id="paint2_linear_3755_45974" x1="12.3809" y1="26.8453" x2="18.5715" y2="26.8453" gradientUnits="userSpaceOnUse">
<stop stop-color="#ED2724"/>
<stop offset="1" stop-color="#BD2126"/>
</linearGradient>
<linearGradient id="paint3_linear_3755_45974" x1="37.1445" y1="32.3702" x2="43.3352" y2="32.3702" gradientUnits="userSpaceOnUse">
<stop stop-color="#ED2724"/>
<stop offset="1" stop-color="#BD2126"/>
</linearGradient>
<linearGradient id="paint4_linear_3755_45974" x1="67.4119" y1="27.1357" x2="99.0321" y2="27.1357" gradientUnits="userSpaceOnUse">
<stop stop-color="#ED2724"/>
<stop offset="1" stop-color="#BD2126"/>
</linearGradient>
<linearGradient id="paint5_linear_3755_45974" x1="91.9687" y1="27.1357" x2="123.591" y2="27.1357" gradientUnits="userSpaceOnUse">
<stop stop-color="#ED2724"/>
<stop offset="1" stop-color="#BD2126"/>
</linearGradient>
<linearGradient id="paint6_linear_3755_45974" x1="154.631" y1="27.1359" x2="180" y2="27.1359" gradientUnits="userSpaceOnUse">
<stop stop-color="#ED2724"/>
<stop offset="1" stop-color="#BD2126"/>
</linearGradient>
<linearGradient id="paint7_linear_3755_45974" x1="126.912" y1="27.1357" x2="151.703" y2="27.1357" gradientUnits="userSpaceOnUse">
<stop stop-color="#ED2724"/>
<stop offset="1" stop-color="#BD2126"/>
</linearGradient>
<linearGradient id="paint8_linear_3755_45974" x1="141.229" y1="50.8221" x2="179.999" y2="50.8221" gradientUnits="userSpaceOnUse">
<stop stop-color="#ED2724"/>
<stop offset="1" stop-color="#BD2126"/>
</linearGradient>
<linearGradient id="paint9_linear_3755_45974" x1="141.375" y1="50.8222" x2="179.853" y2="50.8222" gradientUnits="userSpaceOnUse">
<stop stop-color="#ED2724"/>
<stop offset="1" stop-color="#BD2126"/>
</linearGradient>
<linearGradient id="paint10_linear_3755_45974" x1="67.4121" y1="50.8221" x2="106.181" y2="50.8221" gradientUnits="userSpaceOnUse">
<stop stop-color="#ED2724"/>
<stop offset="1" stop-color="#BD2126"/>
</linearGradient>
<linearGradient id="paint11_linear_3755_45974" x1="67.5586" y1="50.8222" x2="106.036" y2="50.8222" gradientUnits="userSpaceOnUse">
<stop stop-color="#ED2724"/>
<stop offset="1" stop-color="#BD2126"/>
</linearGradient>
<linearGradient id="paint12_linear_3755_45974" x1="109.867" y1="49.5212" x2="111.212" y2="49.5212" gradientUnits="userSpaceOnUse">
<stop stop-color="#ED2724"/>
<stop offset="1" stop-color="#BD2126"/>
</linearGradient>
<linearGradient id="paint13_linear_3755_45974" x1="113.002" y1="50.8206" x2="119.764" y2="50.8206" gradientUnits="userSpaceOnUse">
<stop stop-color="#ED2724"/>
<stop offset="1" stop-color="#BD2126"/>
</linearGradient>
<linearGradient id="paint14_linear_3755_45974" x1="121.668" y1="50.8206" x2="128.748" y2="50.8206" gradientUnits="userSpaceOnUse">
<stop stop-color="#ED2724"/>
<stop offset="1" stop-color="#BD2126"/>
</linearGradient>
<linearGradient id="paint15_linear_3755_45974" x1="130.322" y1="49.521" x2="137.541" y2="49.521" gradientUnits="userSpaceOnUse">
<stop stop-color="#ED2724"/>
<stop offset="1" stop-color="#BD2126"/>
</linearGradient>
<clipPath id="clip0_3755_45974">
<rect width="180" height="64" fill="white"/>
</clipPath>
</defs>
</svg>
