<svg width="106" height="86" viewBox="0 0 106 86" fill="none" xmlns="http://www.w3.org/2000/svg">
<path opacity="0.3" d="M6.39356 85.9989H94.7703C104.539 79.3039 111.128 59.8153 100.731 49.861C95.4114 44.772 78.7809 43.3557 76.0197 36.0306C69.3421 18.3445 49.0173 0.421199 27.6769 27.8584C19.7234 38.0838 5.19387 33.6114 11.7064 54.5705C12.5189 57.1794 16.6321 61.6382 6.63476 67.6013C-8.02805 76.3495 6.15235 85.8295 6.39356 85.9921V85.9989Z" fill="#FFC9C9"/>
<path d="M97.0402 71.3281H74.8652V77.4664H97.0402V71.3281Z" fill="white"/>
<path d="M97.6679 72.5927L95.1675 66.5684H82.3729V66.5787H76.7406L74.2402 72.603H89.5352V72.5927H97.6679Z" fill="#EDA2A2"/>
<path d="M74.2402 72.1113V72.6034H89.5352V72.5931H97.6679V72.1113H74.2402Z" fill="#C44545"/>
<path d="M84.661 83.0293H94.5605V72.3112H84.661V83.0293Z" fill="white"/>
<path d="M89.5143 67.0176L84.6621 72.3119H94.5617L89.5143 67.0176Z" fill="white"/>
<path d="M89.5104 66.5781L84.0215 72.5718H84.8328L89.5207 67.4536L94.3677 72.5718H95.2201L89.5053 66.5781H89.5104Z" fill="#C44545"/>
<path d="M91.4579 71.2695H87.7559V73.6784H91.4579V71.2695Z" fill="#EBF8FF"/>
<path d="M91.5505 73.7673H87.6738V71.1875H91.5505V73.7673ZM87.8484 73.5963H91.381V71.3584H87.8484V73.5963Z" fill="#C44545"/>
<path d="M88.6852 71.2695H88.5723V73.6577H88.6852V71.2695Z" fill="#C44545"/>
<path d="M90.6462 71.291H90.5332V73.6791H90.6462V71.291Z" fill="#C44545"/>
<path d="M91.4638 71.9023H87.7617V72.0163H91.4638V71.9023Z" fill="#C44545"/>
<path d="M98.7467 76.0312H85.9512V85.5579H98.7467V76.0312Z" fill="white"/>
<path d="M97.6684 79.8184H86.4082V85.5582H97.6684V79.8184Z" fill="#EDA2A2"/>
<path d="M79.0569 76.0312H72.8184V85.5579H79.0569V76.0312Z" fill="white"/>
<path d="M99.9873 79.0512L98.7448 76.0312H72.8167L71.5742 79.0512H99.9873Z" fill="#EDA2A2"/>
<path d="M71.5645 78.5547V79.052H90.13V79.0364H99.998V78.5547H71.5645Z" fill="#C44545"/>
<path d="M77.1966 85.5566H85.9922V76.03H77.1966V85.5566Z" fill="white"/>
<path d="M77.1957 85.5566H77.4062V76.03H77.1957V85.5566Z" fill="#C44545"/>
<path d="M85.9242 85.5566H86.1348V76.03H85.9242V85.5566Z" fill="#C44545"/>
<path d="M81.5052 71.3281L77.1973 76.0319H85.9929L81.5052 71.3281Z" fill="white"/>
<path d="M81.4997 70.9395L76.627 76.2596H77.3458L81.51 71.7113L85.8179 76.2596H86.5779L81.5048 70.9395H81.4997Z" fill="#C44545"/>
<path d="M83.4482 75.8594H79.7461V78.2682H83.4482V75.8594Z" fill="#EBF8FF"/>
<path d="M83.5348 78.3571H79.6582V75.7773H83.5348V78.3571ZM79.8328 78.1862H83.3654V75.9483H79.8328V78.1862Z" fill="#C44545"/>
<path d="M80.6696 75.8594H80.5566V78.2475H80.6696V75.8594Z" fill="#C44545"/>
<path d="M82.6364 75.8809H82.5234V78.269H82.6364V75.8809Z" fill="#C44545"/>
<path d="M83.4482 76.4922H79.7461V76.6062H83.4482V76.4922Z" fill="#C44545"/>
<path d="M84.6465 72.7517V74.1556C84.6465 74.2177 84.8159 74.2177 84.8159 74.1556V72.7517C84.8159 72.6895 84.6465 72.6895 84.6465 72.7517Z" fill="#C44545"/>
<path d="M94.5312 72.8708V75.7718C94.5312 75.834 94.7007 75.834 94.7007 75.7718V72.8708C94.7007 72.8087 94.5312 72.8087 94.5312 72.8708Z" fill="#C44545"/>
<path d="M76.3381 81.5391H73.7246V85.5538H76.3381V81.5391Z" fill="#EDA2A2"/>
<path d="M82.7952 81.5391H80.1816V85.5538H82.7952V81.5391Z" fill="#EDA2A2"/>
<path d="M83.9347 78.5898H82.1581H80.8642H79.0876L77.9785 80.6257H80.8642H82.1581H85.0438L83.9347 78.5898Z" fill="#EDA2A2"/>
<path d="M85.1811 80.4395H77.8438V80.6259H85.1811V80.4395Z" fill="#C44545"/>
<path d="M80.6689 66.1074H79.416V69.3762H80.6689V66.1074Z" fill="white"/>
<path d="M80.8902 66.1074H79.1855V66.5685H80.8902V66.1074Z" fill="white"/>
<path d="M80.7815 66.5684H79.3027V66.9724H80.7815V66.5684Z" fill="white"/>
<path d="M80.6117 66.5469H79.4153C79.3485 66.5469 79.3485 66.6039 79.4153 66.6039H80.6117C80.6784 66.6039 80.6784 66.5469 80.6117 66.5469Z" fill="#BBDAFF"/>
<path d="M80.5458 66.9824H79.5291C79.5291 66.9824 79.4727 66.9876 79.4727 67.0135C79.4727 67.0394 79.5137 67.0446 79.5291 67.0446H80.5458C80.5458 67.0446 80.6023 67.0394 80.6023 67.0135C80.6023 66.9876 80.5612 66.9824 80.5458 66.9824Z" fill="#BBDAFF"/>
<path d="M100 8H7V36.8007H100V8Z" fill="white" stroke="#F0808E" stroke-width="0.5"/>
<path d="M25.7745 26.6546H23.6303L26.4154 18.2111H29.0716L31.8567 26.6546H29.7125L27.7737 20.3385H27.7092L25.7745 26.6546ZM26.7924 23.3316H28.6925L29.1683 24.8818H26.3176L26.7924 23.3316ZM26.6169 17.3824L25.5932 17.3783C25.5932 16.8176 25.7221 16.3943 25.9801 16.1085C26.2408 15.8226 26.5592 15.6797 26.9354 15.6797C27.1315 15.6797 27.2995 15.7127 27.4392 15.7786C27.5816 15.8419 27.7079 15.9161 27.8181 16.0013C27.9282 16.0865 28.0303 16.1621 28.1244 16.228C28.2184 16.2912 28.3192 16.3228 28.4267 16.3228C28.5825 16.3228 28.6967 16.2651 28.7693 16.1497C28.8445 16.0342 28.8835 15.879 28.8862 15.6838L29.8938 15.6962C29.8885 16.2486 29.7554 16.6705 29.4948 16.9619C29.2368 17.2505 28.9225 17.3975 28.5516 17.403C28.3474 17.4058 28.1741 17.3742 28.0317 17.3082C27.892 17.2422 27.7697 17.1666 27.6649 17.0814C27.5628 16.9962 27.4647 16.9207 27.3707 16.8547C27.2766 16.7887 27.1732 16.7557 27.0603 16.7557C26.926 16.7557 26.8185 16.8107 26.7379 16.9207C26.6572 17.0306 26.6169 17.1845 26.6169 17.3824Z" fill="#D1132A"/>
<path d="M40.6011 20.9692C40.5555 20.7961 40.4883 20.6435 40.3996 20.5116C40.3109 20.3769 40.2021 20.2629 40.0731 20.1694C39.9442 20.076 39.7964 20.0059 39.6298 19.9592C39.4632 19.9097 39.2805 19.8849 39.0816 19.8849C38.6812 19.8849 38.3346 19.9839 38.0417 20.1818C37.7515 20.3797 37.5271 20.6683 37.3686 21.0476C37.2101 21.4241 37.1308 21.8818 37.1308 22.4205C37.1308 22.9619 37.2074 23.4237 37.3605 23.8057C37.5137 24.1878 37.7354 24.4791 38.0256 24.6798C38.3158 24.8804 38.6678 24.9807 39.0816 24.9807C39.447 24.9807 39.7561 24.9203 40.0087 24.7993C40.2639 24.6756 40.4574 24.5011 40.5891 24.2757C40.7207 24.0504 40.7866 23.7851 40.7866 23.48L41.1574 23.5254H39.1501V22.0371H42.7092V23.1543C42.7092 23.9102 42.552 24.5575 42.2376 25.0962C41.9259 25.6349 41.4959 26.0485 40.9478 26.3371C40.4023 26.6257 39.7749 26.77 39.0655 26.77C38.2782 26.77 37.5863 26.5955 36.9897 26.2464C36.3932 25.8974 35.9283 25.3999 35.5951 24.754C35.2619 24.1053 35.0953 23.3357 35.0953 22.4452C35.0953 21.7526 35.1961 21.1383 35.3976 20.6023C35.5992 20.0636 35.88 19.6073 36.24 19.2335C36.6028 18.8597 37.022 18.5766 37.4976 18.3842C37.9759 18.1918 38.4905 18.0957 39.0413 18.0957C39.5196 18.0957 39.9643 18.1657 40.3754 18.3059C40.7892 18.4461 41.1547 18.644 41.4718 18.8996C41.7915 19.1552 42.0508 19.4589 42.2497 19.8107C42.4485 20.1626 42.5721 20.5487 42.6205 20.9692H40.6011Z" fill="#D1132A"/>
<path d="M45.8802 18.2111V26.6546H43.8851V18.2111H45.8802Z" fill="#D1132A"/>
<path d="M48.9183 26.6546H46.774L49.5592 18.2111H52.2154L55.0005 26.6546H52.8562L50.9175 20.3385H50.853L48.9183 26.6546ZM49.9362 23.3316H51.8362L52.3121 24.8818H49.4613L49.9362 23.3316Z" fill="#D1132A"/>
<path d="M63.2925 22.4328C63.2925 23.3618 63.1178 24.1493 62.7685 24.7952C62.4192 25.4411 61.9463 25.9317 61.3497 26.2671C60.7559 26.6024 60.0895 26.77 59.3505 26.77C58.6089 26.77 57.9412 26.601 57.3473 26.2629C56.7535 25.9249 56.2819 25.4342 55.9326 24.7911C55.586 24.1452 55.4126 23.3591 55.4126 22.4328C55.4126 21.5038 55.586 20.7164 55.9326 20.0705C56.2819 19.4246 56.7535 18.934 57.3473 18.5986C57.9412 18.2633 58.6089 18.0957 59.3505 18.0957C60.0895 18.0957 60.7559 18.2633 61.3497 18.5986C61.9463 18.934 62.4192 19.4246 62.7685 20.0705C63.1178 20.7164 63.2925 21.5038 63.2925 22.4328ZM61.253 22.4328C61.253 21.8831 61.1764 21.4186 61.0233 21.0393C60.8728 20.66 60.6551 20.3728 60.3703 20.1777C60.0881 19.9825 59.7482 19.8849 59.3505 19.8849C58.9555 19.8849 58.6156 19.9825 58.3308 20.1777C58.046 20.3728 57.827 20.66 57.6738 21.0393C57.5233 21.4186 57.4481 21.8831 57.4481 22.4328C57.4481 22.9825 57.5233 23.4471 57.6738 23.8264C57.827 24.2056 58.046 24.4929 58.3308 24.688C58.6156 24.8832 58.9555 24.9807 59.3505 24.9807C59.7482 24.9807 60.0881 24.8832 60.3703 24.688C60.6551 24.4929 60.8728 24.2056 61.0233 23.8264C61.1764 23.4471 61.253 22.9825 61.253 22.4328Z" fill="#D1132A"/>
<path d="M69.947 26.6546H66.8959V18.2111H69.943C70.7841 18.2111 71.5082 18.3801 72.1155 18.7182C72.7255 19.0535 73.1957 19.5373 73.5262 20.1694C73.8567 20.7988 74.022 21.5519 74.022 22.4287C74.022 23.3083 73.8567 24.0641 73.5262 24.6963C73.1984 25.3284 72.7295 25.8135 72.1195 26.1516C71.5096 26.4869 70.7854 26.6546 69.947 26.6546ZM68.891 24.9148H69.8704C70.3326 24.9148 70.7236 24.8351 71.0434 24.6756C71.3658 24.5135 71.609 24.251 71.7729 23.8882C71.9395 23.5226 72.0228 23.0361 72.0228 22.4287C72.0228 21.8213 71.9395 21.3376 71.7729 20.9775C71.6063 20.6147 71.3604 20.3536 71.0353 20.1942C70.7128 20.032 70.3152 19.9509 69.8422 19.9509H68.891V24.9148Z" fill="#D1132A"/>
<path d="M77.182 18.2111V26.6546H75.1868V18.2111H77.182ZM76.1784 29.12C75.8989 29.12 75.6597 29.0252 75.4609 28.8356C75.2647 28.6459 75.1667 28.4192 75.1667 28.1553C75.1667 27.8914 75.2661 27.6647 75.4649 27.475C75.6638 27.2854 75.9016 27.1906 76.1784 27.1906C76.4578 27.1906 76.6956 27.2854 76.8918 27.475C77.0906 27.6647 77.19 27.8914 77.19 28.1553C77.19 28.4192 77.0906 28.6459 76.8918 28.8356C76.6956 29.0252 76.4578 29.12 76.1784 29.12Z" fill="#D1132A"/>
<path d="M85.9274 21.2702H83.9121C83.8852 21.0586 83.8301 20.8676 83.7468 20.6971C83.6635 20.5267 83.5534 20.3811 83.4163 20.2601C83.2793 20.1392 83.1167 20.0471 82.9286 19.9839C82.7432 19.9179 82.5377 19.8849 82.3119 19.8849C81.9116 19.8849 81.5663 19.9853 81.2761 20.1859C80.9886 20.3866 80.7669 20.6765 80.611 21.0558C80.4579 21.4351 80.3813 21.8941 80.3813 22.4328C80.3813 22.9935 80.4592 23.4635 80.6151 23.8428C80.7736 24.2194 80.9953 24.5039 81.2801 24.6963C81.5676 24.8859 81.9075 24.9807 82.2998 24.9807C82.5202 24.9807 82.7204 24.9519 82.9004 24.8942C83.0831 24.8364 83.243 24.7526 83.3801 24.6427C83.5198 24.53 83.634 24.3939 83.7227 24.2345C83.814 24.0723 83.8772 23.8896 83.9121 23.6862L85.9274 23.6985C85.8925 24.0723 85.7863 24.4406 85.609 24.8035C85.4343 25.1663 85.1938 25.4975 84.8875 25.7971C84.5812 26.0939 84.2077 26.3303 83.767 26.5062C83.329 26.6821 82.8265 26.77 82.2595 26.77C81.5125 26.77 80.8435 26.6024 80.2523 26.2671C79.6638 25.929 79.199 25.437 78.8577 24.7911C78.5164 24.1452 78.3458 23.3591 78.3458 22.4328C78.3458 21.5038 78.5191 20.7164 78.8658 20.0705C79.2124 19.4246 79.6813 18.934 80.2725 18.5986C80.8636 18.2633 81.526 18.0957 82.2595 18.0957C82.7593 18.0957 83.2215 18.1671 83.6461 18.31C84.0706 18.4502 84.4441 18.6564 84.7666 18.9285C85.089 19.1978 85.351 19.529 85.5526 19.9221C85.7541 20.3151 85.879 20.7645 85.9274 21.2702Z" fill="#D1132A"/>
<path d="M87.0691 26.6546V18.2111H89.0642V21.6H92.3169V18.2111H94.308V26.6546H92.3169V23.2615H89.0642V26.6546H87.0691Z" fill="#D1132A"/>
<path d="M17.6932 21.6042V22.7339H18.7735V21.6042H17.6932Z" fill="#D1132A"/>
<path d="M15.698 22.7339V21.6042H14.5938V22.7339H15.698Z" fill="#D1132A"/>
<path fill-rule="evenodd" clip-rule="evenodd" d="M22.3284 20.1694C21.9979 19.5373 21.5276 19.0535 20.9177 18.7182C20.6215 18.5404 19.5621 18.19 17.6932 18.2111H15.698V21.6042H17.6932V19.9509C17.8645 19.957 18.0387 19.955 18.2136 19.9529C18.7688 19.9464 19.3315 19.9397 19.8375 20.1942C20.1626 20.3536 20.4085 20.6147 20.5751 20.9775C20.7417 21.3376 20.825 21.8213 20.825 22.4287C20.825 23.0361 20.7417 23.5226 20.5751 23.8882C20.4111 24.251 20.168 24.5135 19.8455 24.6756C19.5257 24.8351 19.1348 24.9148 18.6726 24.9148H17.6932V22.7339H15.698V26.6546H17.6932H18.7492C19.5876 26.6546 20.3117 26.4869 20.9217 26.1516C21.5317 25.8135 22.0005 25.3284 22.3284 24.6963C22.6589 24.0641 22.8241 23.3083 22.8241 22.4287C22.8241 21.5519 22.6589 20.7988 22.3284 20.1694Z" fill="#D1132A"/>
<path d="M17.6932 22.7339V21.6042H15.698V22.7339H17.6932Z" fill="#D1132A"/>
<path d="M22.0842 85.8805L8.01865 85.8993L8 68.3711L22.0718 74.5756L22.0842 85.8805Z" fill="white"/>
<path d="M11.5086 72.1093L8.68555 72.1133L8.68646 72.7657L11.5095 72.7618L11.5086 72.1093Z" fill="#EDA2A2"/>
<path d="M11.5047 73.6543L8.68164 73.6582L8.68255 74.3107L11.5056 74.3067L11.5047 73.6543Z" fill="#EDA2A2"/>
<path d="M11.532 70.5605L8.70898 70.5645L8.70989 71.2169L11.5329 71.2129L11.532 70.5605Z" fill="#EDA2A2"/>
<path d="M11.5125 75.1972L8.68945 75.2012L8.69036 75.8536L11.5134 75.8497L11.5125 75.1972Z" fill="#EDA2A2"/>
<path d="M11.5145 76.7402L8.69141 76.7441L8.69232 77.3966L11.5154 77.3926L11.5145 76.7402Z" fill="#EDA2A2"/>
<path d="M11.5106 78.2832L8.6875 78.2871L8.68841 78.9396L11.5115 78.9356L11.5106 78.2832Z" fill="#EDA2A2"/>
<path d="M11.5203 79.8261L8.69727 79.8301L8.69818 80.4825L11.5212 80.4786L11.5203 79.8261Z" fill="#EDA2A2"/>
<path d="M11.5164 81.3769L8.69336 81.3809L8.69427 82.0333L11.5173 82.0294L11.5164 81.3769Z" fill="#EDA2A2"/>
<path d="M11.5242 82.9199L8.70117 82.9238L8.70208 83.5763L11.5251 83.5723L11.5242 82.9199Z" fill="#EDA2A2"/>
<path d="M11.5262 84.4629L8.70312 84.4668L8.70404 85.1192L11.5271 85.1153L11.5262 84.4629Z" fill="#EDA2A2"/>
<path d="M14.8035 72.1113L11.9805 72.1152L11.9814 72.7677L14.8044 72.7637L14.8035 72.1113Z" fill="#EDA2A2"/>
<path d="M14.7996 73.6543L11.9766 73.6582L11.9775 74.3107L14.8005 74.3067L14.7996 73.6543Z" fill="#EDA2A2"/>
<path d="M14.8016 75.1972L11.9785 75.2012L11.9794 75.8536L14.8025 75.8497L14.8016 75.1972Z" fill="#EDA2A2"/>
<path d="M14.8035 76.7402L11.9805 76.7441L11.9814 77.3966L14.8044 77.3926L14.8035 76.7402Z" fill="#EDA2A2"/>
<path d="M14.8055 78.291L11.9824 78.2949L11.9833 78.9474L14.8064 78.9434L14.8055 78.291Z" fill="#EDA2A2"/>
<path d="M14.8016 79.834L11.9785 79.8379L11.9794 80.4903L14.8025 80.4864L14.8016 79.834Z" fill="#EDA2A2"/>
<path d="M14.8113 81.3769L11.9883 81.3809L11.9892 82.0333L14.8122 82.0294L14.8113 81.3769Z" fill="#EDA2A2"/>
<path d="M14.8133 82.9199L11.9902 82.9238L11.9911 83.5763L14.8142 83.5723L14.8133 82.9199Z" fill="#EDA2A2"/>
<path d="M14.8152 84.4629L11.9922 84.4668L11.9931 85.1192L14.8162 85.1153L14.8152 84.4629Z" fill="#EDA2A2"/>
<path d="M18.0906 73.6445L15.2676 73.6484L15.2685 74.3009L18.0915 74.297L18.0906 73.6445Z" fill="#EDA2A2"/>
<path d="M18.0984 75.1875L15.2754 75.1914L15.2763 75.8439L18.0994 75.8399L18.0984 75.1875Z" fill="#EDA2A2"/>
<path d="M18.0945 76.7382L15.2715 76.7422L15.2724 77.3946L18.0954 77.3907L18.0945 76.7382Z" fill="#EDA2A2"/>
<path d="M18.1043 78.2812L15.2812 78.2852L15.2822 78.9376L18.1052 78.9337L18.1043 78.2812Z" fill="#EDA2A2"/>
<path d="M18.1063 79.8242L15.2832 79.8281L15.2841 80.4806L18.1072 80.4766L18.1063 79.8242Z" fill="#EDA2A2"/>
<path d="M18.1024 81.3672L15.2793 81.3711L15.2802 82.0235L18.1033 82.0196L18.1024 81.3672Z" fill="#EDA2A2"/>
<path d="M18.1102 82.9101L15.2871 82.9141L15.288 83.5665L18.1111 83.5626L18.1102 82.9101Z" fill="#EDA2A2"/>
<path d="M18.1121 84.4609L15.2891 84.4648L15.29 85.1173L18.113 85.1134L18.1121 84.4609Z" fill="#EDA2A2"/>
<path d="M21.3875 75.1894L18.5645 75.1934L18.5654 75.8458L21.3884 75.8419L21.3875 75.1894Z" fill="#EDA2A2"/>
<path d="M21.3953 76.7324L18.5723 76.7363L18.5732 77.3888L21.3962 77.3848L21.3953 76.7324Z" fill="#EDA2A2"/>
<path d="M21.3914 78.2754L18.5684 78.2793L18.5693 78.9317L21.3923 78.9278L21.3914 78.2754Z" fill="#EDA2A2"/>
<path d="M21.3934 79.8203L18.5703 79.8242L18.5712 80.4767L21.3943 80.4727L21.3934 79.8203Z" fill="#EDA2A2"/>
<path d="M21.3953 81.3632L18.5723 81.3672L18.5732 82.0196L21.3962 82.0157L21.3953 81.3632Z" fill="#EDA2A2"/>
<path d="M21.3992 82.9121L18.5762 82.916L18.5771 83.5685L21.4001 83.5645L21.3992 82.9121Z" fill="#EDA2A2"/>
<path d="M21.4012 84.455L18.5781 84.459L18.579 85.1114L21.4021 85.1075L21.4012 84.455Z" fill="#EDA2A2"/>
<path d="M34.8041 68.5443L23.1699 68.5605L23.1942 85.8755L34.8284 85.8593L34.8041 68.5443Z" fill="white"/>
<path d="M33.8404 69.1174L32.5781 69.1191L32.58 70.4617L33.8423 70.4599L33.8404 69.1174Z" fill="#EDA2A2"/>
<path d="M33.8424 70.717L32.5801 70.7188L32.582 72.0613L33.8442 72.0595L33.8424 70.717Z" fill="#EDA2A2"/>
<path d="M33.8502 72.3107L32.5879 72.3125L32.5898 73.655L33.8521 73.6533L33.8502 72.3107Z" fill="#EDA2A2"/>
<path d="M33.8424 74.7326L32.5801 74.7344L32.582 76.0769L33.8442 76.0751L33.8424 74.7326Z" fill="#EDA2A2"/>
<path d="M33.8502 76.3322L32.5879 76.334L32.5898 77.6765L33.8521 77.6748L33.8502 76.3322Z" fill="#EDA2A2"/>
<path d="M33.8521 77.926L32.5898 77.9277L32.5917 79.2703L33.854 79.2685L33.8521 77.926Z" fill="#EDA2A2"/>
<path d="M33.856 80.3459L32.5938 80.3477L32.5956 81.6902L33.8579 81.6884L33.856 80.3459Z" fill="#EDA2A2"/>
<path d="M33.858 81.9455L32.5957 81.9473L32.5976 83.2898L33.8599 83.288L33.858 81.9455Z" fill="#EDA2A2"/>
<path d="M33.8599 83.5393L32.5977 83.541L32.5995 84.8836L33.8618 84.8818L33.8599 83.5393Z" fill="#EDA2A2"/>
<path d="M31.0299 69.1271L29.7676 69.1289L29.7695 70.4714L31.0317 70.4697L31.0299 69.1271Z" fill="#EDA2A2"/>
<path d="M31.0318 70.715L29.7695 70.7168L29.7714 72.0593L31.0337 72.0576L31.0318 70.715Z" fill="#EDA2A2"/>
<path d="M31.0396 72.3146L29.7773 72.3164L29.7792 73.6589L31.0415 73.6572L31.0396 72.3146Z" fill="#EDA2A2"/>
<path d="M31.0377 74.7424L29.7754 74.7441L29.7773 76.0867L31.0396 76.0849L31.0377 74.7424Z" fill="#EDA2A2"/>
<path d="M31.0396 76.3361L29.7773 76.3379L29.7792 77.6804L31.0415 77.6787L31.0396 76.3361Z" fill="#EDA2A2"/>
<path d="M31.0416 77.9357L29.7793 77.9375L29.7812 79.28L31.0435 79.2783L31.0416 77.9357Z" fill="#EDA2A2"/>
<path d="M31.0396 80.3557L29.7773 80.3574L29.7792 81.7L31.0415 81.6982L31.0396 80.3557Z" fill="#EDA2A2"/>
<path d="M31.0533 81.9494L29.791 81.9512L29.7929 83.2937L31.0552 83.2919L31.0533 81.9494Z" fill="#EDA2A2"/>
<path d="M31.0494 83.5432L29.7871 83.5449L29.789 84.8875L31.0513 84.8857L31.0494 83.5432Z" fill="#EDA2A2"/>
<path d="M28.2193 69.1252L26.957 69.127L26.9589 70.4695L28.2212 70.4677L28.2193 69.1252Z" fill="#EDA2A2"/>
<path d="M28.2213 70.7248L26.959 70.7266L26.9609 72.0691L28.2231 72.0673L28.2213 70.7248Z" fill="#EDA2A2"/>
<path d="M28.2232 72.3186L26.9609 72.3203L26.9628 73.6628L28.2251 73.6611L28.2232 72.3186Z" fill="#EDA2A2"/>
<path d="M28.2271 74.7404L26.9648 74.7422L26.9667 76.0847L28.229 76.083L28.2271 74.7404Z" fill="#EDA2A2"/>
<path d="M28.2232 76.34L26.9609 76.3418L26.9628 77.6843L28.2251 77.6826L28.2232 76.34Z" fill="#EDA2A2"/>
<path d="M28.231 77.9396L26.9688 77.9414L26.9706 79.2839L28.2329 79.2822L28.231 77.9396Z" fill="#EDA2A2"/>
<path d="M28.2349 80.3615L26.9727 80.3633L26.9745 81.7058L28.2368 81.7041L28.2349 80.3615Z" fill="#EDA2A2"/>
<path d="M28.2428 81.9533L26.9805 81.9551L26.9823 83.2976L28.2446 83.2958L28.2428 81.9533Z" fill="#EDA2A2"/>
<path d="M28.2389 83.5549L26.9766 83.5566L26.9784 84.8992L28.2407 84.8974L28.2389 83.5549Z" fill="#EDA2A2"/>
<path d="M25.4029 69.1291L24.1406 69.1309L24.1425 70.4734L25.4048 70.4716L25.4029 69.1291Z" fill="#EDA2A2"/>
<path d="M25.4107 70.7228L24.1484 70.7246L24.1503 72.0671L25.4126 72.0654L25.4107 70.7228Z" fill="#EDA2A2"/>
<path d="M25.4127 72.3225L24.1504 72.3242L24.1523 73.6668L25.4146 73.665L25.4127 72.3225Z" fill="#EDA2A2"/>
<path d="M25.4166 74.7443L24.1543 74.7461L24.1562 76.0886L25.4185 76.0869L25.4166 74.7443Z" fill="#EDA2A2"/>
<path d="M25.4127 76.3439L24.1504 76.3457L24.1523 77.6882L25.4146 77.6865L25.4127 76.3439Z" fill="#EDA2A2"/>
<path d="M25.4146 77.9377L24.1523 77.9395L24.1542 79.282L25.4165 79.2802L25.4146 77.9377Z" fill="#EDA2A2"/>
<path d="M25.4244 80.3596L24.1621 80.3613L24.164 81.7039L25.4263 81.7021L25.4244 80.3596Z" fill="#EDA2A2"/>
<path d="M25.4264 81.9592L24.1641 81.9609L24.1659 83.3035L25.4282 83.3017L25.4264 81.9592Z" fill="#EDA2A2"/>
<path d="M25.4283 83.551L24.166 83.5527L24.1679 84.8953L25.4302 84.8935L25.4283 83.551Z" fill="#EDA2A2"/>
<path d="M26.4135 62.5407L16.3711 62.5547L16.4037 85.8859L26.446 85.8719L26.4135 62.5407Z" fill="#EDA2A2"/>
<path d="M24.4449 55.9992L18.3262 56.0078L18.3437 68.6741L24.4624 68.6654L24.4449 55.9992Z" fill="#EDA2A2"/>
<path d="M20.312 57.1534L19.6777 57.1543L19.6808 59.3626L20.3151 59.3617L20.312 57.1534Z" fill="#C44545"/>
<path d="M20.3159 59.9776L19.6816 59.9785L19.6847 62.1868L20.319 62.1859L20.3159 59.9776Z" fill="#C44545"/>
<path d="M20.3139 62.794L19.6797 62.7949L19.6828 65.0032L20.317 65.0023L20.3139 62.794Z" fill="#C44545"/>
<path d="M20.3237 65.6104L19.6895 65.6113L19.6925 67.8196L20.3268 67.8187L20.3237 65.6104Z" fill="#C44545"/>
<path d="M20.3296 68.4367L19.6953 68.4375L19.698 70.6458L20.3323 70.645L20.3296 68.4367Z" fill="#C44545"/>
<path d="M20.3315 71.2511L19.6973 71.252L19.7004 73.4602L20.3346 73.4593L20.3315 71.2511Z" fill="#C44545"/>
<path d="M20.3354 74.0733L19.7012 74.0742L19.7043 76.2825L20.3385 76.2816L20.3354 74.0733Z" fill="#C44545"/>
<path d="M20.3393 76.8897L19.7051 76.8906L19.7081 79.0989L20.3424 79.098L20.3393 76.8897Z" fill="#C44545"/>
<path d="M20.3374 79.714L19.7031 79.7148L19.7062 81.9231L20.3405 81.9222L20.3374 79.714Z" fill="#C44545"/>
<path d="M20.353 82.5324L19.7188 82.5332L19.7214 84.7415L20.3557 84.7407L20.353 82.5324Z" fill="#C44545"/>
<path d="M21.7104 57.1515L21.0762 57.1523L21.0792 59.3606L21.7135 59.3597L21.7104 57.1515Z" fill="#C44545"/>
<path d="M21.7085 59.9698L21.0742 59.9707L21.0773 62.179L21.7116 62.1781L21.7085 59.9698Z" fill="#C44545"/>
<path d="M21.7124 62.7979L21.0781 62.7988L21.0812 65.0071L21.7155 65.0062L21.7124 62.7979Z" fill="#C44545"/>
<path d="M21.7124 65.6125L21.0781 65.6133L21.0808 67.8216L21.7151 67.8208L21.7124 65.6125Z" fill="#C44545"/>
<path d="M21.7202 68.4327L21.0859 68.4336L21.089 70.6419L21.7233 70.641L21.7202 68.4327Z" fill="#C44545"/>
<path d="M21.73 71.2491L21.0957 71.25L21.0988 73.4583L21.733 73.4574L21.73 71.2491Z" fill="#C44545"/>
<path d="M21.728 74.0655L21.0938 74.0664L21.0968 76.2747L21.7311 76.2738L21.728 74.0655Z" fill="#C44545"/>
<path d="M21.7319 76.8956L21.0977 76.8965L21.1007 79.1048L21.735 79.1039L21.7319 76.8956Z" fill="#C44545"/>
<path d="M21.7358 79.7082L21.1016 79.709L21.1042 81.9173L21.7385 81.9165L21.7358 79.7082Z" fill="#C44545"/>
<path d="M21.7397 82.5284L21.1055 82.5293L21.1085 84.7376L21.7428 84.7367L21.7397 82.5284Z" fill="#C44545"/>
<path d="M23.103 57.1495L22.4688 57.1504L22.4718 59.3587L23.1061 59.3578L23.103 57.1495Z" fill="#C44545"/>
<path d="M23.1069 59.9737L22.4727 59.9746L22.4757 62.1829L23.11 62.182L23.1069 59.9737Z" fill="#C44545"/>
<path d="M23.1069 62.7863L22.4727 62.7871L22.4754 64.9954L23.1096 64.9946L23.1069 62.7863Z" fill="#C44545"/>
<path d="M23.1147 65.6124L22.4805 65.6133L22.4836 67.8216L23.1178 67.8207L23.1147 65.6124Z" fill="#C44545"/>
<path d="M23.1128 68.4308L22.4785 68.4316L22.4816 70.6399L23.1159 70.639L23.1128 68.4308Z" fill="#C44545"/>
<path d="M23.1225 71.253L22.4883 71.2539L22.4914 73.4622L23.1256 73.4613L23.1225 71.253Z" fill="#C44545"/>
<path d="M23.1264 74.0694L22.4922 74.0703L22.4953 76.2786L23.1295 76.2777L23.1264 74.0694Z" fill="#C44545"/>
<path d="M23.1245 76.884L22.4902 76.8848L22.4929 79.093L23.1272 79.0923L23.1245 76.884Z" fill="#C44545"/>
<path d="M23.1284 79.7101L22.4941 79.7109L22.4972 81.9192L23.1315 81.9183L23.1284 79.7101Z" fill="#C44545"/>
<path d="M23.1382 82.5265L22.5039 82.5273L22.507 84.7356L23.1412 84.7347L23.1382 82.5265Z" fill="#C44545"/>
<path d="M18.3302 63.1489L17.2793 63.1504L17.2808 64.2106L18.3317 64.2092L18.3302 63.1489Z" fill="#C44545"/>
<path d="M18.338 64.9048L17.2871 64.9062L17.2886 65.9665L18.3395 65.965L18.338 64.9048Z" fill="#C44545"/>
<path d="M18.3419 66.6606L17.291 66.6621L17.2925 67.7223L18.3434 67.7209L18.3419 66.6606Z" fill="#C44545"/>
<path d="M18.3497 68.4126L17.2988 68.4141L17.3003 69.4743L18.3512 69.4728L18.3497 68.4126Z" fill="#C44545"/>
<path d="M18.3458 70.1685L17.2949 70.1699L17.2964 71.2301L18.3473 71.2287L18.3458 70.1685Z" fill="#C44545"/>
<path d="M18.3477 71.9243L17.2969 71.9258L17.2984 72.986L18.3492 72.9845L18.3477 71.9243Z" fill="#C44545"/>
<path d="M18.3517 73.6821L17.3008 73.6836L17.3023 74.7438L18.3531 74.7424L18.3517 73.6821Z" fill="#C44545"/>
<path d="M18.3536 75.438L17.3027 75.4395L17.3042 76.4997L18.3551 76.4982L18.3536 75.438Z" fill="#C44545"/>
<path d="M18.3614 77.1938L17.3105 77.1953L17.312 78.2555L18.3629 78.2541L18.3614 77.1938Z" fill="#C44545"/>
<path d="M18.3575 78.9634L17.3066 78.9648L17.3081 80.0251L18.359 80.0236L18.3575 78.9634Z" fill="#C44545"/>
<path d="M18.3556 80.7212L17.3047 80.7227L17.3062 81.7829L18.357 81.7814L18.3556 80.7212Z" fill="#C44545"/>
<path d="M18.3634 82.477L17.3125 82.4785L17.314 83.5387L18.3648 83.5373L18.3634 82.477Z" fill="#C44545"/>
<path d="M18.3653 84.2329L17.3145 84.2344L17.3159 85.2946L18.3668 85.2931L18.3653 84.2329Z" fill="#C44545"/>
<path d="M25.5001 63.1509L24.4492 63.1523L24.4507 64.2126L25.5016 64.2111L25.5001 63.1509Z" fill="#C44545"/>
<path d="M25.5079 64.9126L24.457 64.9141L24.4585 65.9743L25.5094 65.9728L25.5079 64.9126Z" fill="#C44545"/>
<path d="M25.5118 66.6704L24.4609 66.6719L24.4624 67.7321L25.5133 67.7306L25.5118 66.6704Z" fill="#C44545"/>
<path d="M25.5138 68.4263L24.4629 68.4277L24.4644 69.488L25.5152 69.4865L25.5138 68.4263Z" fill="#C44545"/>
<path d="M25.5157 70.1821L24.4648 70.1836L24.4663 71.2438L25.5172 71.2424L25.5157 70.1821Z" fill="#C44545"/>
<path d="M25.5177 71.9399L24.4668 71.9414L24.4683 73.0016L25.5192 73.0002L25.5177 71.9399Z" fill="#C44545"/>
<path d="M25.5216 73.6958L24.4707 73.6973L24.4722 74.7575L25.5231 74.756L25.5216 73.6958Z" fill="#C44545"/>
<path d="M25.5235 75.4536L24.4727 75.4551L24.4741 76.5153L25.525 76.5138L25.5235 75.4536Z" fill="#C44545"/>
<path d="M25.5196 77.2095L24.4688 77.2109L24.4702 78.2712L25.5211 78.2697L25.5196 77.2095Z" fill="#C44545"/>
<path d="M25.5274 78.9653L24.4766 78.9668L24.478 80.027L25.5289 80.0255L25.5274 78.9653Z" fill="#C44545"/>
<path d="M25.5255 80.7231L24.4746 80.7246L24.4761 81.7848L25.527 81.7834L25.5255 80.7231Z" fill="#C44545"/>
<path d="M25.5333 82.479L24.4824 82.4805L24.4839 83.5407L25.5348 83.5392L25.5333 82.479Z" fill="#C44545"/>
<path d="M25.5352 84.2348L24.4844 84.2363L24.4858 85.2966L25.5367 85.2951L25.5352 84.2348Z" fill="#C44545"/>
<path d="M103.065 85.3867H2.52344V86.0004H103.065V85.3867Z" fill="#0D0000"/>
<mask id="mask0_4288_75789" style="mask-type:alpha" maskUnits="userSpaceOnUse" x="38" y="40" width="33" height="46">
<rect x="38" y="40" width="33" height="46" fill="#D9D9D9"/>
</mask>
<g mask="url(#mask0_4288_75789)">
<mask id="mask1_4288_75789" style="mask-type:luminance" maskUnits="userSpaceOnUse" x="40" y="40" width="29" height="56">
<path d="M69 40H40V95.4717H69V40Z" fill="white"/>
</mask>
<g mask="url(#mask1_4288_75789)">
<path d="M57.9314 55.2198H51.2305L51.429 54.2268C51.429 54.2268 51.5558 54.0447 51.8048 53.9072L52.064 53.7478C52.3314 53.5998 52.4324 53.5657 52.7945 53.5L54.2253 53.7522H54.5616L56.6734 53.7215C57.7265 54.1988 57.7412 54.6927 57.9314 55.2198Z" fill="#161213"/>
<path d="M58.3225 55.3472V61.7343L56.8788 62.053L51.3826 61.7343L52.0268 58.6292L51.719 57.3095H51.0684V55.4671C51.1373 55.4286 51.2016 55.3901 51.2613 55.3498L51.231 55.2193C51.3349 55.1992 51.4304 55.1773 51.5186 55.1545C52.082 54.6624 52.0654 54.1615 52.0654 54.1615V51.6816H56.6748C56.6748 51.6816 56.6969 52.3086 56.6803 53.412C56.6785 53.5021 56.6776 53.5958 56.6748 53.693C56.6555 54.637 57.399 55.0985 57.7877 55.2754C57.943 55.3051 58.1203 55.3297 58.3225 55.3472Z" fill="url(#paint0_linear_4288_75789)"/>
<path style="mix-blend-mode:multiply" opacity="0.6" d="M56.6785 53.4111C56.3697 53.8533 55.8569 54.6318 55.3947 54.9146C55.2219 55.0206 54.9849 55.0179 54.8286 55.0179C54.0944 55.0179 52.4431 53.4286 52.0645 53.0529V51.6816H56.6739C56.6739 51.6816 56.6959 52.3086 56.6794 53.412L56.6785 53.4111Z" fill="url(#paint1_linear_4288_75789)"/>
<g style="mix-blend-mode:multiply" opacity="0.25">
<path d="M60.9642 74.8203V75.2809C57.6827 77.3046 54.1328 77.3921 54.1328 77.3921C57.7893 77.0795 60.9642 74.8212 60.9642 74.8212V74.8203Z" fill="#523E7A"/>
</g>
<g style="mix-blend-mode:multiply" opacity="0.25">
<path d="M51.5482 75.4089C51.5482 75.4089 49.1112 75.6751 47.6602 74.5166V74.366L47.9377 73.8555C47.9377 73.8555 49.1479 75.4194 51.5482 75.408V75.4089Z" fill="#523E7A"/>
</g>
<path d="M52.6023 59.3368C53.5222 60.5251 53.9623 60.7528 54.567 60.7528C55.1717 60.7528 56.7339 59.3368 56.7339 59.3368L57.0141 82.1138C56.0695 82.4019 53.0847 82.5008 51.6484 82.0682L51.8782 59.3359H52.6023V59.3368Z" fill="url(#paint2_linear_4288_75789)"/>
<path d="M63.9305 118.353C63.8111 118.853 63.5372 118.908 62.4483 119.268C61.6387 119.535 59.9249 119.034 59.9249 119.034C59.9037 118.981 59.8817 118.922 59.8615 118.86C59.8247 118.745 59.7898 118.617 59.7567 118.488C59.6997 118.266 59.6492 118.043 59.6041 117.891C59.5178 117.602 59.6951 116.859 59.504 116C59.1805 114.545 59.1447 110.729 58.4821 108.702C57.8205 106.677 58.0686 104.211 57.8205 103.224C56.8446 99.3547 57.4658 99.3696 56.9594 96.796C56.4467 94.19 55.2732 89.0008 55.2732 89.0008C55.2732 89.0008 55.0434 88.2443 54.7843 87.6882C54.5251 87.1322 54.2375 86.7469 54.2375 86.7469C54.2375 86.7469 53.6283 87.4649 53.5327 88.1882C53.3884 89.2723 51.9567 94.1944 51.942 95.2286C51.9337 95.8564 52.0339 96.226 52.0936 96.4668C52.1331 96.6226 52.1561 96.7242 52.1221 96.8057C52.089 96.8845 52.0219 97.0421 51.9448 97.2531C51.9264 97.3048 51.9062 97.36 51.8869 97.4177C51.8841 97.4265 51.8813 97.4353 51.8786 97.4431C51.8666 97.4764 51.8556 97.5106 51.8437 97.5456C51.84 97.5579 51.8354 97.5692 51.8317 97.5824C51.6838 98.0368 51.5322 98.627 51.4972 99.2234C51.4329 100.314 51.3033 103.461 51.0874 105.173C50.8714 106.885 50.5691 109.303 50.4184 110.608C50.2677 111.914 50.0049 114.874 49.9938 115.666C49.9828 116.457 49.8431 116.91 49.7779 117.135C49.7136 117.36 49.7632 118.462 49.7632 118.462C49.4829 118.675 48.9003 118.942 47.9786 119.083C46.1683 119.357 45.4157 118.403 45.3945 118.377C45.3945 118.377 45.525 117.924 45.4313 117.006C45.2852 115.573 45.6252 112.919 45.6252 111.421C45.6252 109.924 45.5177 106.842 45.6252 104.787C45.6619 104.083 45.7704 103.453 45.8981 102.927C46.1416 101.919 46.4532 101.299 46.4532 101.299C46.2087 100.743 45.9082 99.5036 46.0791 98.5307C46.41 96.6472 46.2087 95.3284 46.2519 93.5736C46.2951 91.8187 46.6259 85.2346 46.6406 84.9491C46.6553 84.6637 46.784 83.7652 46.784 83.7652C46.784 83.1032 46.9733 81.5726 47.1754 80.1216C47.4098 78.4447 47.6625 76.8746 47.6625 76.8746C47.6625 76.8746 51.794 77.7836 54.4571 77.879C54.5463 77.8825 54.6336 77.8843 54.719 77.886C54.776 77.8869 54.8321 77.8878 54.8872 77.8878C57.508 77.8878 61.148 76.668 61.148 76.668C61.148 76.668 61.9107 82.3957 61.9686 83.2232C62.213 86.7416 62.3821 87.7022 62.429 91.07C62.6587 92.5254 62.7883 96.3345 62.7883 96.3345C62.7883 96.3345 62.6808 96.5911 62.6587 97.1261C62.6376 97.6612 63.3066 98.1104 63.2845 98.3906C63.2652 98.6454 63.0309 98.9834 62.9886 99.3171C62.984 99.3503 62.9822 99.3836 62.9822 99.416C62.9822 99.7794 63.234 100.201 63.234 100.714C63.234 101.227 63.5942 108.575 63.6374 109.402C63.6806 110.23 63.6374 111.97 63.6374 112.413C63.6374 112.511 63.6447 112.598 63.6558 112.679C63.6944 112.961 63.7817 113.155 63.7817 113.411C63.7817 113.496 63.7918 113.66 63.8046 113.873C63.8423 114.484 63.9048 115.501 63.8249 116.246C63.7173 117.252 64.0298 117.948 63.9324 118.354L63.9305 118.353Z" fill="url(#paint3_linear_4288_75789)"/>
<g style="mix-blend-mode:multiply" opacity="0.25">
<path d="M57.0141 96.8461C56.9966 96.8295 56.9782 96.8128 56.9589 96.7945C56.4462 94.1885 55.2727 88.9993 55.2727 88.9993C55.2727 88.9993 55.0429 88.2427 54.7838 87.6867C54.5246 87.1306 54.237 86.7453 54.237 86.7453C54.237 86.7453 53.6278 87.4634 53.5322 88.1867C53.3879 89.2707 51.9562 94.1929 51.9415 95.227C51.9332 95.8549 52.0334 96.2244 52.0931 96.4652L50.711 97.403C50.711 97.403 50.5098 94.4074 50.7974 93.0948C51.085 91.7821 51.9562 88.6157 53.0497 85.3337C53.1766 84.9528 53.5019 84.5877 53.5644 84.2383L54.5541 86.1183C54.5541 86.1183 56.7274 90.4266 57.015 96.847L57.0141 96.8461Z" fill="#523E7A"/>
</g>
<g style="mix-blend-mode:multiply" opacity="0.25">
<path d="M63.2815 98.3889C62.3782 98.9151 61.0292 99.3153 60.1084 99.3153C60.1084 99.3153 61.3131 98.0071 61.3131 97.4029C61.3131 96.7987 61.7065 94.4072 61.3131 90.8546C60.9731 87.7758 60.5449 81.4272 60.2306 79.4193C60.1654 79.0034 59.8235 78.6855 59.4017 78.6435C58.242 78.5288 55.8537 78.6645 55.7774 78.7424C55.6322 79.2135 55.3106 81.696 55.3106 81.696L54.8989 80.267L54.4551 77.879C54.5442 77.8825 54.6315 77.8843 54.717 77.886C54.774 77.8869 54.83 77.8878 54.8851 77.8878C57.506 77.8878 61.1459 76.668 61.1459 76.668C61.1459 76.668 61.9086 82.3957 61.9665 83.2232C62.211 86.7416 62.38 87.7022 62.4269 91.07C62.6566 92.5254 62.7862 96.3345 62.7862 96.3345C62.7862 96.3345 62.6787 96.5911 62.6566 97.1261C62.6355 97.6612 63.3045 98.1104 63.2824 98.3906L63.2815 98.3889Z" fill="#523E7A"/>
</g>
<path d="M53.9258 78.1038V84.4235C53.9258 84.4235 55.1774 84.3429 55.2684 83.4419C55.3603 82.5408 55.2684 77.9961 55.2684 77.9961L53.9258 78.1038Z" fill="#161213"/>
<path d="M61.2384 75.8957C61.3377 76.0236 61.3101 76.7372 61.3101 76.816C61.3101 77.1558 57.4992 78.338 54.6183 78.2495C51.9516 78.1681 48.682 77.5647 47.3431 76.9439C47.2512 76.901 47.3036 75.8843 47.4368 75.788C47.6445 75.6383 51.0712 77.1146 54.6183 77.1146C59.4823 77.1146 61.0656 75.6707 61.2384 75.8948V75.8957Z" fill="#161213"/>
<path d="M54.5528 77.7141H54.1135C54.0988 77.7141 54.0859 77.7018 54.0859 77.6869V77.6326C54.0859 77.6177 54.0979 77.6055 54.1135 77.6055H54.5528C54.5675 77.6055 54.5803 77.6177 54.5803 77.6326V77.6869C54.5803 77.7018 54.5684 77.7141 54.5528 77.7141Z" fill="url(#paint4_linear_4288_75789)"/>
<path d="M55.4007 78.1646C55.3695 78.1646 55.3438 78.1401 55.3438 78.1103V77.2066C55.3438 77.1769 55.3695 77.1523 55.4007 77.1523C55.432 77.1523 55.4577 77.1769 55.4577 77.2066V78.1103C55.4577 78.1401 55.432 78.1646 55.4007 78.1646Z" fill="url(#paint5_linear_4288_75789)"/>
<path d="M55.1922 78.0455H54.185C54.1703 78.0455 54.1575 78.0333 54.1575 78.0184V77.2995C54.1575 77.2846 54.1694 77.2723 54.185 77.2723H55.1922C55.2069 77.2723 55.2198 77.2601 55.2198 77.2452V77.1795C55.2198 77.1646 55.2078 77.1523 55.1922 77.1523H54.0022C53.9875 77.1523 53.9746 77.1646 53.9746 77.1795V78.1375C53.9746 78.1524 53.9866 78.1646 54.0022 78.1646H55.1922C55.2069 78.1646 55.2198 78.1524 55.2198 78.1375V78.0718C55.2198 78.0569 55.2078 78.0446 55.1922 78.0446V78.0455Z" fill="url(#paint6_linear_4288_75789)"/>
<path d="M50.784 78.0185L50.3962 77.9546C50.3227 77.9423 50.273 77.874 50.285 77.8014L50.4798 76.6367C50.4917 76.564 50.5616 76.515 50.6351 76.5273L51.0229 76.5912C51.0964 76.6035 51.146 76.6718 51.1341 76.7444L50.9393 77.9091C50.9273 77.9817 50.8575 78.0308 50.784 78.0185Z" fill="url(#paint7_linear_4288_75789)"/>
<path d="M58.3374 78.0167L58.7252 77.9528C58.7987 77.9405 58.8484 77.8722 58.8364 77.7995L58.66 76.7461C58.648 76.6734 58.5782 76.6244 58.5047 76.6366L58.1169 76.7006C58.0434 76.7128 57.9937 76.7811 58.0057 76.8538L58.1821 77.9072C58.1941 77.9799 58.2639 78.029 58.3374 78.0167Z" fill="url(#paint8_linear_4288_75789)"/>
<path d="M53.5007 67.9427H55.3937L57.2058 55.6055H51.5645L53.5007 67.9427Z" fill="url(#paint9_linear_4288_75789)"/>
<path opacity="0.5" d="M56.2981 57.2991C56.2981 57.2991 55.5905 56.4786 55.3516 56.2466L55.4232 56.0137L56.2429 56.7939L56.2972 57.2991H56.2981Z" fill="#A5A1CF"/>
<g style="mix-blend-mode:multiply" opacity="0.5">
<path d="M52.4941 57.2991C52.4941 57.2991 53.2045 56.4533 53.5289 56.3237L53.3993 56.0137L52.4941 56.9506V57.2991Z" fill="#A5A1CF"/>
</g>
<path d="M55.3697 58.6346C55.3145 58.104 54.8293 56.773 54.8293 56.773L54.6152 56.6504H54.1778L53.9637 56.773C53.9637 56.773 53.4794 58.104 53.4234 58.6346C53.3682 59.1653 53.4813 74.105 53.4813 74.105L54.4177 75.3362L55.4267 74.105C55.4267 74.105 55.4239 59.1653 55.3688 58.6346H55.3697Z" fill="url(#paint10_linear_4288_75789)"/>
<path d="M54.9102 55.6055L54.3965 55.6808L53.8828 55.6055H53.3691V56.1852C53.3691 56.1852 53.7413 56.4855 53.9646 56.7719C54.2256 56.919 54.5555 56.9268 54.8303 56.7719C55.0526 56.4864 55.4257 56.1852 55.4257 56.1852V55.6055H54.912H54.9102Z" fill="url(#paint11_linear_4288_75789)"/>
<path d="M51.7576 55.8907C51.7576 55.8907 52.1978 56.9564 52.4937 57.2988C52.4937 57.2988 53.1581 56.3233 53.6718 55.8907C53.9401 55.6648 54.3959 55.6823 54.3959 55.6823C54.3959 55.6823 53.4402 55.2042 52.7887 54.7637C52.1371 54.3224 52.0793 54.1044 52.0701 53.9082C52.0701 53.9082 51.9488 54.0781 51.8027 54.3233L51.3652 55.2418L51.7558 55.8916L51.7576 55.8907Z" fill="url(#paint12_linear_4288_75789)"/>
<path d="M57.0348 55.8904C57.0348 55.8904 56.5946 56.9561 56.2987 57.2985C56.2987 57.2985 55.6343 56.323 55.1206 55.8904C54.8523 55.6645 54.3965 55.682 54.3965 55.682C54.3965 55.682 55.3522 55.2039 56.0037 54.7635C56.6552 54.3221 56.7416 54.1102 56.7499 53.9141C56.7499 53.9141 56.8436 54.0778 56.9897 54.3221L57.4272 55.2407L57.0366 55.8904H57.0348Z" fill="url(#paint13_linear_4288_75789)"/>
<path d="M47.6262 67.4723L48.3779 61.4398C48.66 59.1727 46.8019 57.1797 44.4062 57.1797L47.6262 67.4723Z" fill="url(#paint14_linear_4288_75789)"/>
<path d="M47.7141 67.3158L46.9919 71.1731L46.786 71.5479V71.5602C46.5416 71.7257 46.265 71.8246 45.9682 71.871C45.6971 71.9131 45.4085 71.9104 45.1117 71.8728C44.6182 71.8115 43.986 71.4367 43.4686 71.0698C42.875 70.6495 42.5194 69.9901 42.5129 69.2852C42.5056 68.5339 42.4927 67.8412 42.5855 67.3999C42.7206 66.7615 42.7656 66.6556 43.2279 62.427C43.6901 58.1984 44.4932 57.0215 44.4932 57.0215C44.4932 57.0215 45.4067 57.7693 46.2448 59.1888C46.2448 59.1905 46.2466 59.1923 46.2475 59.1949C46.7364 60.0233 47.1995 61.0802 47.4412 62.3508C47.4872 62.5907 47.5276 63.0382 47.5644 63.6275C47.6241 64.5811 47.6737 65.906 47.7132 67.3141L47.7141 67.3158Z" fill="url(#paint15_linear_4288_75789)"/>
<g style="mix-blend-mode:multiply" opacity="0.25">
<path d="M47.7147 67.3162L46.9925 71.1735L46.7866 71.5483V71.5606C46.5422 71.7261 46.2656 71.825 45.9688 71.8715L45.9733 71.8224C45.9908 71.6035 46.0092 71.3872 46.0294 71.1727C46.2095 69.2821 46.7544 68.3574 47.1597 65.1542C47.5539 62.0386 46.3161 59.3389 46.2481 59.1953C46.737 60.0237 47.2001 61.0806 47.4418 62.3512C47.4878 62.5911 47.5282 63.0386 47.565 63.6279C47.6247 64.5815 47.6743 65.9064 47.7138 67.3145L47.7147 67.3162Z" fill="black"/>
</g>
<path d="M41.959 59.2292C41.959 59.2292 43.0838 58.745 45.1532 58.977L44.4438 59.6136L43.1444 59.6556L41.959 59.2292Z" fill="#1C0F30"/>
<path d="M44.853 57.784C44.8052 57.8628 44.8805 59.2928 44.8805 59.2928L42.5501 59.369C42.5501 59.369 42.4885 58.6107 42.46 58.4382C42.4315 58.2656 41.4823 56.6246 41.3187 56.0704C41.1551 55.5161 41.1708 55.2096 41.2829 55.0633C41.3941 54.918 41.9243 54.5493 42.0245 54.4758C42.1246 54.4013 42.1926 54.4127 42.1926 54.4127C42.1926 54.4127 42.177 54.347 42.3112 54.2139C42.4453 54.0808 42.8313 53.833 42.8313 53.833C42.8313 53.833 43.0371 53.4267 43.4277 53.1833C43.5324 53.1185 43.651 53.1448 43.651 53.1448C43.651 53.1448 43.6556 51.9705 43.7989 51.0729C43.8522 50.7384 43.832 49.9328 43.832 49.9328C43.832 49.9328 43.9331 49.7428 44.1748 49.7288C44.4165 49.7148 44.6177 50.2603 44.6343 50.7192C44.6508 51.178 44.49 53.1439 44.5929 53.7709C44.6444 54.0852 44.7206 54.4547 44.7206 54.4547C44.7206 54.4547 44.8364 54.502 44.9577 54.6912C45.079 54.8803 45.4769 55.46 45.51 55.6325C45.5431 55.8041 45.3281 57.0056 44.8539 57.7849L44.853 57.784Z" fill="url(#paint16_linear_4288_75789)"/>
<path d="M43.5241 54.551C43.4947 54.5658 43.4671 54.5816 43.4414 54.5965C43.4368 54.5851 43.2071 53.9616 43.1694 53.9196C43.1336 53.8802 42.8671 53.8373 42.834 53.832L43.1556 53.8732C43.1823 53.8767 43.2043 53.8933 43.2163 53.917L43.5241 54.5518V54.551Z" fill="#DD6668"/>
<path d="M44.3028 54.402C44.2762 54.402 44.2486 54.4037 44.2201 54.4046C44.1172 53.7601 44.0409 53.5386 43.9647 53.3783C43.8884 53.2181 43.6504 53.1445 43.6504 53.1445C43.6504 53.1445 43.8939 53.148 44.0014 53.3477C44.1264 53.5806 44.2835 54.3092 44.3038 54.402H44.3028Z" fill="#DD6668"/>
<path d="M42.3985 55.6895C42.3985 55.6895 42.2984 55.9057 41.6055 55.9863C41.6055 55.9863 42.0594 56.0117 42.4463 55.7902L42.3976 55.6895H42.3985Z" fill="#DD6668"/>
<path style="mix-blend-mode:multiply" opacity="0.6" d="M41.6298 55.4592C41.6298 55.4592 41.8596 55.4881 42.0332 55.3594C42.0332 55.3594 42.3154 55.6142 42.4036 55.6501C42.4036 55.6501 42.6379 56.1965 42.9301 56.3462C43.0726 56.4198 43.3023 56.2788 43.3124 56.1764C43.3124 56.1764 43.4383 56.3655 43.5081 56.4478C43.5081 56.4478 43.2812 56.8699 43.431 57.6781C43.431 57.6781 43.329 57.1203 41.9726 55.9566C41.9579 55.7744 41.8118 55.5757 41.6289 55.4592H41.6298Z" fill="url(#paint17_linear_4288_75789)"/>
<path d="M42.1914 54.411C42.1914 54.411 42.5682 54.6457 42.8972 55.186C42.9661 55.327 43.3116 56.1746 43.3116 56.1746L43.4494 56.3716L42.9459 55.1851C42.8034 54.9303 42.4469 54.5441 42.1914 54.4102V54.411Z" fill="#DD6668"/>
<path style="mix-blend-mode:multiply" opacity="0.6" d="M43.8145 56.5919C43.8145 56.5919 44.0727 56.6567 44.25 56.4676C44.3107 56.4028 44.2886 56.1769 44.2886 56.1769C44.2886 56.1769 44.693 56.0551 44.5616 55.7539C44.5616 55.7539 44.5404 55.9264 44.3787 56.0271C44.2611 56.0998 44.1361 56.084 44.1361 56.084C44.1361 56.084 44.2032 56.2635 44.1646 56.3896C44.1269 56.5149 43.9753 56.5998 43.8154 56.5919H43.8145Z" fill="url(#paint18_linear_4288_75789)"/>
<path style="mix-blend-mode:multiply" opacity="0.6" d="M43.2676 55.1133C43.2676 55.1133 43.41 55.5818 44.4549 55.4434L44.5274 55.5879C44.5274 55.5879 43.8392 55.587 43.5635 55.4714C43.3163 55.3681 43.2676 55.1133 43.2676 55.1133Z" fill="url(#paint19_linear_4288_75789)"/>
<path style="mix-blend-mode:multiply" opacity="0.6" d="M44.8532 57.785C44.8054 57.8638 44.8808 59.2938 44.8808 59.2938L44.6455 59.3016C44.6455 59.3016 44.5876 58.0512 44.6115 57.9225C44.6363 57.7929 45.0416 56.9023 45.162 56.3866C45.2824 55.8708 45.3458 55.7499 45.1905 55.4268C45.0352 55.1037 44.9773 54.8708 44.6465 54.5249C44.6216 54.4986 44.2954 54.5012 43.869 54.5503C43.4638 54.5967 43.2772 54.7053 43.2598 54.7167C43.2781 54.7026 43.4831 54.5555 43.6981 54.4767C43.9242 54.3935 44.4351 54.404 44.5362 54.4005C44.6373 54.397 44.72 54.4566 44.72 54.4566C44.72 54.4566 44.8358 54.5039 44.9571 54.693C45.0784 54.8822 45.4763 55.4618 45.5093 55.6344C45.5424 55.806 45.3274 57.0074 44.8532 57.7867V57.785Z" fill="url(#paint20_linear_4288_75789)"/>
<path d="M43.8789 55.5449L44.1335 56.0835L44.2253 56.0808L43.9736 55.5563C43.9423 55.5528 43.9102 55.5493 43.8789 55.5449Z" fill="#DD6668"/>
<path d="M46.4326 71.342C46.3325 71.5934 45.7884 72.4594 45.1921 72.6354C44.8337 72.7414 44.0755 72.4874 43.4203 72.1415C42.9857 71.9121 42.8028 71.7764 42.3966 71.4095C41.8315 70.8981 41.8241 66.5714 41.8756 63.891C41.8995 62.6546 41.9362 61.7684 41.9362 61.7684L41.9611 59.2307C41.9611 59.2307 42.1347 59.2307 42.2119 59.2351C42.3617 59.2438 42.6411 59.257 42.9903 59.2535C43.0279 59.2535 43.0675 59.2526 43.107 59.2517C43.4966 59.2447 43.9579 59.2158 44.4192 59.1414C44.6683 59.102 44.9173 59.0486 45.1544 58.9785C45.5422 63.1563 45.1479 59.2421 46.3904 67.8236C46.3922 67.8376 46.394 67.8516 46.3959 67.8648C46.3995 67.8902 46.4032 67.9156 46.406 67.9392C46.6256 69.4716 46.5328 71.0925 46.4326 71.3438V71.342Z" fill="url(#paint21_linear_4288_75789)"/>
<g style="mix-blend-mode:multiply" opacity="0.25">
<path d="M46.4322 71.3438C46.3321 71.5951 45.788 72.4611 45.1916 72.6372C44.8333 72.7431 44.0751 72.4892 43.4199 72.1433C43.4199 72.1433 44.8673 72.4121 45.1632 72.1371C45.4591 71.8613 45.6088 71.6599 45.6879 70.4042C45.7678 69.1485 44.8002 62.0311 44.8002 62.0311L44.4188 59.1414C44.6678 59.102 44.9169 59.0486 45.154 58.9785C45.5418 63.1563 45.1475 59.2421 46.3899 67.8236C46.3918 67.8376 46.3936 67.8516 46.3955 67.8648C46.3991 67.8902 46.4028 67.9156 46.4056 67.9392C46.6252 69.4716 46.5324 71.0925 46.4322 71.3438Z" fill="black"/>
</g>
<path d="M60.78 67.4723L60.0283 61.4398C59.7462 59.1727 61.6043 57.1797 64 57.1797L60.78 67.4723Z" fill="url(#paint22_linear_4288_75789)"/>
<path d="M60.6921 67.3158L61.4144 71.1731L61.6202 71.5479V71.5602C61.8647 71.7257 62.1413 71.8246 62.4381 71.871C62.7092 71.9131 62.9977 71.9104 63.2946 71.8728C63.788 71.8115 64.4203 71.4367 64.9376 71.0698C65.5313 70.6495 65.8869 69.9901 65.8933 69.2852C65.9007 68.5339 65.9135 67.8412 65.8207 67.3999C65.6856 66.7615 65.6406 66.6556 65.1784 62.427C64.7162 58.1984 63.913 57.0215 63.913 57.0215C63.913 57.0215 62.9996 57.7693 62.1615 59.1888C62.1615 59.1905 62.1597 59.1923 62.1587 59.1949C61.6699 60.0233 61.2067 61.0802 60.965 62.3508C60.9191 62.5907 60.8787 63.0382 60.8419 63.6275C60.7822 64.5811 60.7325 65.906 60.693 67.3141L60.6921 67.3158Z" fill="url(#paint23_linear_4288_75789)"/>
<g style="mix-blend-mode:multiply" opacity="0.25">
<path d="M60.6915 67.3162L61.4138 71.1735L61.6196 71.5483V71.5606C61.8641 71.7261 62.1407 71.825 62.4375 71.8715L62.4329 71.8224C62.4154 71.6035 62.3971 71.3872 62.3769 71.1727C62.1967 69.2821 61.6518 68.3574 61.2465 65.1542C60.8523 62.0386 62.0901 59.3389 62.1581 59.1953C61.6693 60.0237 61.2061 61.0806 60.9644 62.3512C60.9185 62.5911 60.8781 63.0386 60.8413 63.6279C60.7816 64.5815 60.7319 65.9064 60.6924 67.3145L60.6915 67.3162Z" fill="black"/>
</g>
<path d="M66.4473 59.2292C66.4473 59.2292 65.3225 58.745 63.253 58.977L63.9624 59.6136L65.2618 59.6556L66.4473 59.2292Z" fill="#1C0F30"/>
<path d="M63.5533 57.784C63.6011 57.8628 63.5257 59.2928 63.5257 59.2928L65.8562 59.369C65.8562 59.369 65.9177 58.6107 65.9462 58.4382C65.9747 58.2656 66.924 56.6246 67.0875 56.0704C67.2511 55.5161 67.2355 55.2096 67.1234 55.0633C67.0122 54.918 66.482 54.5493 66.3818 54.4758C66.2816 54.4013 66.2136 54.4127 66.2136 54.4127C66.2136 54.4127 66.2293 54.347 66.0951 54.2139C65.9609 54.0808 65.575 53.833 65.575 53.833C65.575 53.833 65.3691 53.4267 64.9786 53.1833C64.8738 53.1185 64.7553 53.1448 64.7553 53.1448C64.7553 53.1448 64.7507 51.9705 64.6073 51.0729C64.554 50.7384 64.5742 49.9328 64.5742 49.9328C64.5742 49.9328 64.4732 49.7428 64.2315 49.7288C63.9898 49.7148 63.7885 50.2603 63.772 50.7192C63.7555 51.178 63.9163 53.1439 63.8134 53.7709C63.7619 54.0852 63.6856 54.4547 63.6856 54.4547C63.6856 54.4547 63.5698 54.502 63.4485 54.6912C63.3272 54.8803 62.9293 55.46 62.8962 55.6325C62.8632 55.8041 63.0782 57.0056 63.5524 57.7849L63.5533 57.784Z" fill="url(#paint24_linear_4288_75789)"/>
<path d="M64.8821 54.551C64.9115 54.5658 64.9391 54.5816 64.9648 54.5965C64.9694 54.5851 65.1992 53.9616 65.2369 53.9196C65.2727 53.8802 65.5392 53.8373 65.5723 53.832L65.2506 53.8732C65.224 53.8767 65.2019 53.8933 65.19 53.917L64.8821 54.5518V54.551Z" fill="#DD6668"/>
<path d="M64.1034 54.402C64.1301 54.402 64.1576 54.4037 64.1861 54.4046C64.289 53.7601 64.3653 53.5386 64.4416 53.3783C64.5179 53.2181 64.7559 53.1445 64.7559 53.1445C64.7559 53.1445 64.5123 53.148 64.4048 53.3477C64.2798 53.5806 64.1227 54.3092 64.1025 54.402H64.1034Z" fill="#DD6668"/>
<path d="M66.0077 55.6895C66.0077 55.6895 66.1079 55.9057 66.8008 55.9863C66.8008 55.9863 66.3468 56.0117 65.9599 55.7902L66.0087 55.6895H66.0077Z" fill="#DD6668"/>
<path style="mix-blend-mode:multiply" opacity="0.6" d="M66.7764 55.4592C66.7764 55.4592 66.5467 55.4881 66.373 55.3594C66.373 55.3594 66.0909 55.6142 66.0027 55.6501C66.0027 55.6501 65.7683 56.1965 65.4761 56.3462C65.3337 56.4198 65.1039 56.2788 65.0938 56.1764C65.0938 56.1764 64.9679 56.3655 64.8981 56.4478C64.8981 56.4478 65.1251 56.8699 64.9753 57.6781C64.9753 57.6781 65.0773 57.1203 66.4337 55.9566C66.4484 55.7744 66.5945 55.5757 66.7773 55.4592H66.7764Z" fill="url(#paint25_linear_4288_75789)"/>
<path d="M66.2148 54.411C66.2148 54.411 65.8381 54.6457 65.5091 55.186C65.4402 55.327 65.0947 56.1746 65.0947 56.1746L64.9568 56.3716L65.4604 55.1851C65.6028 54.9303 65.9594 54.5441 66.2148 54.4102V54.411Z" fill="#DD6668"/>
<path style="mix-blend-mode:multiply" opacity="0.6" d="M64.5918 56.5919C64.5918 56.5919 64.3336 56.6567 64.1562 56.4676C64.0956 56.4028 64.1176 56.1769 64.1176 56.1769C64.1176 56.1769 63.7133 56.0551 63.8447 55.7539C63.8447 55.7539 63.8658 55.9264 64.0276 56.0271C64.1452 56.0998 64.2702 56.084 64.2702 56.084C64.2702 56.084 64.2031 56.2635 64.2417 56.3896C64.2794 56.5149 64.431 56.5998 64.5909 56.5919H64.5918Z" fill="url(#paint26_linear_4288_75789)"/>
<path style="mix-blend-mode:multiply" opacity="0.6" d="M65.1387 55.1133C65.1387 55.1133 64.9962 55.5818 63.9514 55.4434L63.8788 55.5879C63.8788 55.5879 64.5671 55.587 64.8428 55.4714C65.09 55.3681 65.1387 55.1133 65.1387 55.1133Z" fill="url(#paint27_linear_4288_75789)"/>
<path style="mix-blend-mode:multiply" opacity="0.6" d="M63.553 57.785C63.6008 57.8638 63.5255 59.2938 63.5255 59.2938L63.7607 59.3016C63.7607 59.3016 63.8186 58.0512 63.7947 57.9225C63.7699 57.7929 63.3647 56.9023 63.2443 56.3866C63.1239 55.8708 63.0605 55.7499 63.2158 55.4268C63.3711 55.1037 63.429 54.8708 63.7598 54.5249C63.7846 54.4986 64.1108 54.5012 64.5372 54.5503C64.9425 54.5967 65.129 54.7053 65.1465 54.7167C65.1281 54.7026 64.9232 54.5555 64.7081 54.4767C64.4821 54.3935 63.9712 54.404 63.8701 54.4005C63.769 54.397 63.6863 54.4566 63.6863 54.4566C63.6863 54.4566 63.5705 54.5039 63.4492 54.693C63.3279 54.8822 62.93 55.4618 62.8969 55.6344C62.8638 55.806 63.0789 57.0074 63.553 57.7867V57.785Z" fill="url(#paint28_linear_4288_75789)"/>
<path d="M64.5273 55.5449L64.2728 56.0835L64.1809 56.0808L64.4327 55.5563C64.4639 55.5528 64.4961 55.5493 64.5273 55.5449Z" fill="#DD6668"/>
<path d="M61.9736 71.342C62.0738 71.5934 62.6178 72.4594 63.2142 72.6354C63.5726 72.7414 64.3307 72.4874 64.9859 72.1415C65.4206 71.9121 65.6034 71.7764 66.0096 71.4095C66.5748 70.8981 66.5821 66.5714 66.5307 63.891C66.5068 62.6546 66.47 61.7684 66.47 61.7684L66.4452 59.2307C66.4452 59.2307 66.2715 59.2307 66.1943 59.2351C66.0445 59.2438 65.7652 59.257 65.416 59.2535C65.3783 59.2535 65.3388 59.2526 65.2993 59.2517C64.9096 59.2447 64.4483 59.2158 63.987 59.1414C63.738 59.102 63.489 59.0486 63.2519 58.9785C62.8641 63.1563 63.2583 59.2421 62.0159 67.8236C62.0141 67.8376 62.0122 67.8516 62.0104 67.8648C62.0067 67.8902 62.003 67.9156 62.0003 67.9392C61.7806 69.4716 61.8735 71.0925 61.9736 71.3438V71.342Z" fill="url(#paint29_linear_4288_75789)"/>
<g style="mix-blend-mode:multiply" opacity="0.25">
<path d="M61.974 71.3438C62.0742 71.5951 62.6182 72.4611 63.2146 72.6372C63.573 72.7431 64.3311 72.4892 64.9863 72.1433C64.9863 72.1433 63.539 72.4121 63.2431 72.1371C62.9472 71.8613 62.7974 71.6599 62.7184 70.4042C62.6384 69.1485 63.6061 62.0311 63.6061 62.0311L63.9874 59.1414C63.7384 59.102 63.4894 59.0486 63.2523 58.9785C62.8645 63.1563 63.2587 59.2421 62.0163 67.8236C62.0145 67.8376 62.0126 67.8516 62.0108 67.8648C62.0071 67.8902 62.0034 67.9156 62.0007 67.9392C61.7811 69.4716 61.8739 71.0925 61.974 71.3438Z" fill="black"/>
</g>
<path d="M51.4387 54.6317C51.4387 54.6317 45.6098 56.4312 45.1522 57.2465L44.9785 57.5565C44.9785 57.5565 46.5389 58.4374 47.4569 61.5933C47.6591 63.1844 47.705 72.6162 47.7399 73.0076C47.8769 74.5286 45.9085 82.6636 45.9085 82.6636C45.9085 82.6636 48.34 83.8361 51.9432 84.3159C51.9432 84.3159 53.3078 74.5794 53.0689 68.9559C52.83 63.3324 51.4396 54.6309 51.4396 54.6309L51.4387 54.6317Z" fill="url(#paint30_linear_4288_75789)"/>
<path d="M57.934 55.0391C57.934 55.0391 61.8359 56.335 64.0082 57.2536C64.0082 57.2536 61.8478 58.7423 61.1172 61.7335C60.9647 64.118 61.1025 71.9928 61.268 72.935C61.5326 75.5997 62.7925 82.6628 62.7925 82.6628C62.7925 82.6628 61.0189 84.0464 57.0142 84.2565C57.0142 84.2565 56.1292 76.5358 55.9785 68.5777L57.934 55.0391Z" fill="url(#paint31_linear_4288_75789)"/>
<path d="M47.6285 72.6289C47.6285 72.6289 48.1009 73.0072 50.3302 73.7454L49.9332 74.988C49.9332 74.988 48.6669 74.6456 47.4199 74.0694L47.6276 72.6289H47.6285Z" fill="#1B181E"/>
<path d="M61.4199 72.6649C61.4199 72.6649 60.466 73.277 58.8027 73.8348L59.2659 75.0774C59.2659 75.0774 60.4274 74.6904 61.6276 74.1588L61.4199 72.6641V72.6649Z" fill="#1B181E"/>
<path d="M52.7774 72.3306C52.7774 72.5434 52.5964 72.7159 52.3731 72.7159C52.1498 72.7159 51.9688 72.5434 51.9688 72.3306C51.9688 72.1178 52.1498 71.9453 52.3731 71.9453C52.5964 71.9453 52.7774 72.1178 52.7774 72.3306Z" fill="#1B181E"/>
<path d="M52.2364 77.8794C52.2364 78.0922 52.0554 78.2647 51.8321 78.2647C51.6088 78.2647 51.4277 78.0922 51.4277 77.8794C51.4277 77.6666 51.6088 77.4941 51.8321 77.4941C52.0554 77.4941 52.2364 77.6666 52.2364 77.8794Z" fill="#1B181E"/>
<path d="M51.9331 55.0692C51.6877 54.3389 52.0516 53.7654 52.0636 53.7461C51.4167 54.0079 51.2402 54.3118 51.0169 54.578L49.9316 58.0631L51.424 58.909L49.9316 60.4038C52.1233 64.6473 53.0946 70.7708 53.0946 70.7708C53.0946 70.7708 53.238 67.5326 53.2821 64.7725C53.3556 60.2199 52.5038 56.6699 51.9331 55.0692Z" fill="url(#paint32_linear_4288_75789)"/>
<path d="M59.2285 58.0631L58.0017 54.7531C57.9631 54.8503 57.5505 53.9063 56.6729 53.7207C56.728 53.8275 57.1755 54.585 57.0386 55.0622C57.0386 55.0648 57.0368 55.0675 57.0359 55.0701C57.0349 55.0736 57.0331 55.078 57.0322 55.0815C56.5277 56.6875 55.8036 60.2313 55.8762 64.7734C55.9203 67.5335 56.0324 70.6587 56.0324 70.6587C56.0324 70.6587 57.0349 64.6481 59.2266 60.4047L57.7343 58.9099L59.2266 58.064L59.2285 58.0631Z" fill="url(#paint33_linear_4288_75789)"/>
<path fill-rule="evenodd" clip-rule="evenodd" d="M58.0062 46.8656L58.008 46.8595L58.0007 47.1248L57.9896 47.546C57.9887 47.5828 57.985 47.6379 57.9777 47.7062C57.9014 48.4943 57.4824 51.18 57.3785 51.4418C57.3298 51.5688 56.4339 52.3727 55.798 52.9331C55.7373 52.9874 55.6785 53.0382 55.6234 53.0863C55.5701 53.1327 55.5204 53.1765 55.4745 53.2168C55.4736 53.2177 55.4717 53.2186 55.4708 53.2194C55.4708 53.2194 55.4708 53.2194 55.4708 53.2203C55.3955 53.2851 55.3321 53.3412 55.2815 53.3849C55.2163 53.4419 55.1326 53.4786 55.0435 53.49C54.8009 53.5207 54.2826 53.568 53.7965 53.4944C53.7101 53.4813 53.6302 53.4436 53.5668 53.3876C53.2047 53.0653 51.8842 51.8867 51.4422 51.3998C51.3576 51.307 51.3007 51.194 51.2795 51.0723C51.2253 50.7676 51.1031 50.0784 50.9873 49.4304C50.9836 49.4094 50.979 49.3875 50.9753 49.3665C50.888 48.8779 50.8072 48.4208 50.7649 48.1809C50.7456 48.0705 50.7337 48.0057 50.7337 48.0057H50.7429L50.6556 47.2588C50.6381 47.1082 50.6289 46.9549 50.6289 46.7991C50.6289 44.6913 51.7142 42.9023 54.3175 42.9023C56.9209 42.9023 58.0062 44.6975 58.0062 46.7991C58.0062 46.8209 58.0053 46.8428 58.0043 46.8647L58.0062 46.8656Z" fill="url(#paint34_linear_4288_75789)"/>
<path d="M55.5644 44.926C55.5644 44.926 55.1463 45.1475 54.4745 45.158C53.8028 45.1685 53.2524 44.926 53.2524 44.926C53.2524 44.926 52.3555 44.961 51.9383 45.3349C51.5201 45.7088 51.1737 46.0617 51.1029 46.8507C51.0313 47.6397 51.0313 48.201 51.0212 48.574C51.011 48.947 50.9394 49.0311 50.9394 49.0311C50.9394 49.0311 50.2061 47.3174 50.1748 46.9339C50.1445 46.5494 50.1243 46.1344 49.9102 45.6983C49.9102 45.6983 50.0066 45.158 50.2162 44.8366L50.4248 44.5249C50.4248 44.5249 50.2208 44.1352 50.3228 43.3568C50.4248 42.5783 51.851 41.9391 52.2792 41.2849C52.2792 41.2849 52.1827 41.6072 52.111 41.7105C52.111 41.7105 53.0989 41.2123 53.4665 40.9005C53.4665 40.9005 53.4867 41.0975 53.3847 41.2324C53.3847 41.2324 54.322 40.7552 55.3209 40.8278L54.8826 41.0047C54.8826 41.0047 56.2683 40.7035 57.0016 41.1912C57.0016 41.1912 56.5027 41.2123 56.3905 41.4715C56.3905 41.4715 57.1854 41.3673 58.1834 41.918C58.1834 41.918 57.6743 41.8664 57.5309 42.1466C57.5309 42.1466 58.8763 42.5722 59.2935 43.9846C59.2935 43.9846 58.9673 43.7876 58.7531 43.7876C58.7531 43.7876 59.3541 44.4084 59.3845 44.926H59.1097C59.1097 44.926 59.3845 45.1633 59.3845 45.3813L58.8193 45.0389C58.8193 45.0389 58.8653 45.7088 58.7127 46.2228C58.7127 46.2228 58.4379 46.799 58.4067 47.1414C58.3764 47.4838 58.1319 48.2474 58.1319 48.2474L57.7037 49.0311C57.7037 49.0311 57.6274 45.9417 57.2452 45.7237C56.8629 45.5057 56.8169 45.2254 56.8169 45.2254C56.8169 45.2254 55.9154 45.2806 55.5635 44.926H55.5644Z" fill="url(#paint35_linear_4288_75789)"/>
<path style="mix-blend-mode:multiply" opacity="0.5" d="M59.1104 44.926H59.3851C59.3548 44.4084 58.7529 43.7876 58.7529 43.7876C58.967 43.7876 59.2932 43.9855 59.2932 43.9855C58.8751 42.573 57.5307 42.1475 57.5307 42.1475C57.6731 41.8673 58.1832 41.9189 58.1832 41.9189C57.1843 41.369 56.3903 41.4723 56.3903 41.4723C56.5024 41.2131 57.0014 41.1921 57.0014 41.1921C56.7496 41.0249 56.4225 40.9504 56.0999 40.9242C56.0117 40.9566 55.9262 40.9898 55.8426 41.0231C54.2519 41.6641 53.5848 42.468 53.3137 44.0801C53.3137 44.0836 53.3128 44.0862 53.3118 44.0897C53.2962 44.1816 53.2824 44.2771 53.2696 44.3752C53.2659 44.4023 53.2631 44.4207 53.2622 44.4277C53.2622 44.4286 53.2622 44.4303 53.2622 44.4312C53.2622 44.4312 52.8809 42.672 54.2979 41.6159C54.6434 41.3576 55.0955 41.1422 55.6864 41.0039C55.8169 40.9732 55.9547 40.9469 56.0999 40.9242C55.5127 40.8769 54.9448 40.9916 54.8869 41.0039H54.8832L55.3197 40.8278C54.3208 40.7552 53.3844 41.2324 53.3844 41.2324C53.4864 41.0975 53.4653 40.9005 53.4653 40.9005C53.0986 41.2123 52.1099 41.7105 52.1099 41.7105C51.2268 43.0547 50.9888 44.327 51.0503 45.3034C51.0503 45.3034 50.2757 43.8708 52.1099 41.7105C52.1788 41.6098 52.2716 41.3042 52.278 41.2858C52.278 41.2858 52.2771 41.2867 52.2771 41.2876C52.2744 41.2919 52.2679 41.3016 52.2578 41.3156C52.1466 41.4776 51.5897 42.2569 50.5927 43.144C50.4328 43.2867 50.3988 44.165 50.5927 44.5459C50.5927 44.5459 50.2564 45.1169 50.0836 45.6773C50.0579 45.7587 50.3584 46.1966 50.3584 46.6738C50.3584 47.151 50.5072 47.9488 50.6212 48.2579C50.623 48.2631 50.6249 48.2675 50.6267 48.2719C50.6285 48.2763 50.6304 48.2815 50.6322 48.2859C50.6322 48.2868 50.6322 48.2876 50.6322 48.2885C50.7949 48.6957 50.9382 49.0311 50.9382 49.0311C50.9382 49.0311 51.0099 48.9479 51.0191 48.574C51.0292 48.2001 51.0292 47.6397 51.1009 46.8507C51.1156 46.6852 51.1431 46.5381 51.1799 46.4067C51.3205 45.912 51.6063 45.63 51.9362 45.3349C52.3543 44.961 53.2503 44.926 53.2503 44.926C53.2503 44.926 53.8007 45.1685 54.4725 45.158C55.1451 45.1475 55.5623 44.926 55.5623 44.926C55.9143 45.2806 56.8158 45.2254 56.8158 45.2254C56.8158 45.2254 56.8617 45.5057 57.244 45.7237C57.3901 45.8069 57.4921 46.3121 57.562 46.9032C57.6152 47.3551 57.6492 47.8577 57.6713 48.2605C57.6952 48.7071 57.7035 49.0302 57.7035 49.0302L58.1317 48.2465C58.1317 48.2465 58.3761 47.4829 58.4065 47.1405C58.4368 46.7981 58.7125 46.2219 58.7125 46.2219C58.865 45.7079 58.8191 45.038 58.8191 45.038L59.3842 45.3804C59.3842 45.1624 59.1095 44.9251 59.1095 44.9251L59.1104 44.926ZM53.8329 41.721C52.8101 42.5634 52.3883 43.2289 52.0703 44.3997C52.0703 44.3997 51.8866 42.6212 53.8329 41.721Z" fill="url(#paint36_linear_4288_75789)"/>
<path d="M52.2791 41.2852C52.2791 41.2852 52.2773 41.2869 52.2773 41.2886C52.2773 41.2886 52.2773 41.2869 52.2791 41.2852Z" fill="url(#paint37_linear_4288_75789)"/>
<path style="mix-blend-mode:multiply" opacity="0.5" d="M59.1113 44.9253H59.3861C59.3558 44.4078 58.7538 43.7869 58.7538 43.7869C58.968 43.7869 59.2942 43.9848 59.2942 43.9848C58.8761 42.5724 57.5317 42.1468 57.5317 42.1468C57.6741 41.8666 58.1841 41.9182 58.1841 41.9182C57.1852 41.3683 56.3912 41.4716 56.3912 41.4716C56.5034 41.2124 57.0023 41.1914 57.0023 41.1914C56.7505 41.0242 56.4234 40.9497 56.1009 40.9235C55.5137 40.8762 54.9457 40.9909 54.8879 41.0032H54.8842L54.8833 41.004C54.8833 41.004 55.3087 40.969 55.6873 41.004C55.7406 41.0093 55.793 41.0154 55.8436 41.0233C55.9869 41.0461 56.111 41.0829 56.1872 41.1398C56.1872 41.1398 56.0347 41.2098 55.9125 41.6161C55.9125 41.6161 56.7257 41.4822 57.2266 41.9603C57.2266 41.9603 57.0428 42.1783 56.9821 42.4174C56.9821 42.4174 57.2872 42.4331 57.6401 42.6485C57.5317 42.6529 57.3956 42.6669 57.2266 42.695C56.5024 42.8175 55.7857 43.8018 55.4355 44.3535C55.2959 44.5733 54.9503 44.8167 54.9494 44.8167C54.7574 44.8684 54.535 44.8937 54.2823 44.8465C54.1352 44.8193 54.0038 44.7913 53.8825 44.7633L54.0259 44.7939C54.0259 44.7939 54.7408 44.223 55.1277 43.0601C55.5146 41.8972 57.2266 41.9594 57.2266 41.9594C56.2075 41.7519 54.7353 42.1853 54.6489 42.9454C54.5469 43.8386 53.8825 44.7624 53.8825 44.7624C53.6969 44.7204 53.5361 44.681 53.3808 44.6521C53.3799 44.6503 53.2815 44.5207 53.2641 44.4296C53.2641 44.4296 52.8827 42.6704 54.2997 41.6144C54.2997 41.6144 52.5749 42.4051 53.0123 44.6057H53.0132C52.7531 44.5925 52.4655 44.6232 52.0676 44.7309C51.2158 44.9629 51.1836 46.3622 51.1836 46.4051C51.3242 45.9104 51.61 45.6284 51.9399 45.3333C52.358 44.9594 53.254 44.9244 53.254 44.9244C53.254 44.9244 53.8044 45.167 54.4762 45.1564C55.1488 45.1459 55.566 44.9244 55.566 44.9244C55.918 45.279 56.8195 45.2239 56.8195 45.2239C56.8195 45.2239 56.8654 45.5041 57.2477 45.7221C57.4526 45.8386 57.5693 46.7817 57.6337 47.6302C57.6337 47.6398 57.6355 47.6495 57.6355 47.66C57.6364 47.6731 57.6373 47.6862 57.6382 47.6994C57.6401 47.7213 57.641 47.7423 57.6428 47.7633C57.6428 47.7677 57.6428 47.7729 57.6438 47.7773C57.6557 47.9463 57.6658 48.1101 57.6732 48.2589C57.6971 48.7055 57.7053 49.0286 57.7053 49.0286L58.1336 48.2449C58.1336 48.2449 58.378 47.4813 58.4083 47.139C58.4386 46.7966 58.7143 46.2204 58.7143 46.2204C58.8669 45.7064 58.8209 45.0365 58.8209 45.0365L59.3861 45.3789C59.3861 45.1608 59.1113 44.9235 59.1113 44.9235V44.9253ZM57.7274 42.7046C57.8919 42.8193 58.0619 42.9795 58.2135 43.2028C57.3846 43.3456 56.6862 43.8841 56.2791 44.2676C56.0347 44.4979 55.7498 44.5242 55.7498 44.5242C56.5061 42.7405 57.7283 42.7046 57.7283 42.7046H57.7274ZM58.5305 44.9384C58.7548 45.3132 57.9424 47.8675 57.7274 46.7887C57.7301 46.3044 57.7099 45.8587 57.6346 45.7396C57.4508 45.4489 57.3699 45.0339 57.3699 45.0339C57.3699 45.0339 57.1255 45.096 56.9114 45.096C56.7809 45.096 56.462 44.8999 56.1817 44.737C56.1817 44.737 56.4381 44.4393 56.881 44.0268C57.324 43.6144 58.0509 43.7458 58.0509 43.7458L58.1244 43.7746C58.2273 43.8272 58.378 43.948 58.5471 44.2291C57.9194 44.1214 57.3708 45.033 57.3708 45.033C57.9047 44.3666 58.5443 44.2291 58.5471 44.2291C58.582 44.2878 58.6188 44.3535 58.6546 44.427C58.6546 44.427 58.4396 44.2028 58.0839 44.5347C58.0839 44.5347 58.3082 44.5627 58.5324 44.9384H58.5305Z" fill="url(#paint38_linear_4288_75789)"/>
<path d="M50.703 47.2469L51.0761 49.3879C51.0761 49.3879 50.9631 49.5551 50.8491 49.5516C50.5468 49.5437 49.7932 48.6146 49.7776 47.577C49.7629 46.5393 50.3235 46.6514 50.703 47.2477V47.2469Z" fill="url(#paint39_linear_4288_75789)"/>
<path d="M58.8747 47.6485C58.8296 48.6853 58.0485 49.5942 57.7462 49.5942C57.7361 49.5942 57.7269 49.5924 57.7168 49.5907C57.8335 48.842 57.9419 48.0714 57.9769 47.7071C57.9833 47.638 57.9879 47.5837 57.9888 47.5469L57.9971 47.2422C58.3904 46.7036 58.9188 46.6441 58.8747 47.6493V47.6485Z" fill="url(#paint40_linear_4288_75789)"/>
<path style="mix-blend-mode:multiply" opacity="0.6" fill-rule="evenodd" clip-rule="evenodd" d="M57.9727 48.3394C57.9727 48.3394 58.0765 47.4892 58.2787 47.2037C58.4965 46.8946 58.6609 47.2825 58.7335 47.6801C58.7335 47.6801 58.66 47.321 58.5001 47.3456C58.3733 47.3648 58.3347 47.5907 58.3347 47.5907C58.3347 47.5907 58.5691 48.3648 58.2759 48.7116C58.2759 48.7116 58.4551 48.3324 58.2704 47.8946C58.2704 47.8946 58.1224 48.0216 57.9727 48.3394Z" fill="url(#paint41_linear_4288_75789)"/>
<path style="mix-blend-mode:multiply" opacity="0.6" fill-rule="evenodd" clip-rule="evenodd" d="M50.7003 48.3023C50.7003 48.3023 50.5965 47.4521 50.3943 47.1666C50.1765 46.8575 50.012 47.2454 49.9395 47.6429C49.9395 47.6429 50.013 47.2839 50.1729 47.3084C50.2997 47.3277 50.3383 47.5536 50.3383 47.5536C50.3383 47.5536 50.1039 48.3277 50.3971 48.6745C50.3971 48.6745 50.2179 48.2953 50.4026 47.8575C50.4026 47.8575 50.5506 47.9845 50.7003 48.3023Z" fill="url(#paint42_linear_4288_75789)"/>
</g>
</g>
<defs>
<linearGradient id="paint0_linear_4288_75789" x1="51.0684" y1="56.8673" x2="58.3225" y2="56.8673" gradientUnits="userSpaceOnUse">
<stop offset="0.02" stop-color="#FFC2A9"/>
<stop offset="1" stop-color="#FF9595"/>
</linearGradient>
<linearGradient id="paint1_linear_4288_75789" x1="54.3747" y1="55.9312" x2="54.3747" y2="50.0319" gradientUnits="userSpaceOnUse">
<stop stop-color="#FFEADB"/>
<stop offset="0.99" stop-color="#B060F4"/>
</linearGradient>
<linearGradient id="paint2_linear_4288_75789" x1="51.6475" y1="70.8492" x2="57.0132" y2="70.8492" gradientUnits="userSpaceOnUse">
<stop offset="0.02" stop-color="#D7D1FD"/>
<stop offset="1" stop-color="white"/>
</linearGradient>
<linearGradient id="paint3_linear_4288_75789" x1="41.9228" y1="75.6356" x2="64.3377" y2="123.247" gradientUnits="userSpaceOnUse">
<stop stop-color="#32323F"/>
<stop offset="0.25" stop-color="#282732"/>
<stop offset="0.66" stop-color="#1E1C23"/>
<stop offset="1" stop-color="#1B181E"/>
</linearGradient>
<linearGradient id="paint4_linear_4288_75789" x1="54.3331" y1="78.1992" x2="54.3331" y2="77.0083" gradientUnits="userSpaceOnUse">
<stop stop-color="#717171"/>
<stop offset="0.28" stop-color="#E6E6E6"/>
<stop offset="0.33" stop-color="#E1E1E1"/>
<stop offset="0.39" stop-color="#D5D5D5"/>
<stop offset="0.44" stop-color="#C1C1C1"/>
<stop offset="0.5" stop-color="#A5A5A5"/>
<stop offset="0.56" stop-color="#818181"/>
<stop offset="0.58" stop-color="#6E6E6E"/>
<stop offset="0.64" stop-color="#8D8D8D"/>
<stop offset="0.7" stop-color="#A8A8A8"/>
<stop offset="0.75" stop-color="#B9B9B9"/>
<stop offset="0.79" stop-color="#BFBFBF"/>
<stop offset="0.85" stop-color="#AAAAAA"/>
<stop offset="0.98" stop-color="#777777"/>
<stop offset="1" stop-color="#6E6E6E"/>
</linearGradient>
<linearGradient id="paint5_linear_4288_75789" x1="55.4007" y1="78.1979" x2="55.4007" y2="77.007" gradientUnits="userSpaceOnUse">
<stop stop-color="#717171"/>
<stop offset="0.28" stop-color="#E6E6E6"/>
<stop offset="0.33" stop-color="#E1E1E1"/>
<stop offset="0.39" stop-color="#D5D5D5"/>
<stop offset="0.44" stop-color="#C1C1C1"/>
<stop offset="0.5" stop-color="#A5A5A5"/>
<stop offset="0.56" stop-color="#818181"/>
<stop offset="0.58" stop-color="#6E6E6E"/>
<stop offset="0.64" stop-color="#8D8D8D"/>
<stop offset="0.7" stop-color="#A8A8A8"/>
<stop offset="0.75" stop-color="#B9B9B9"/>
<stop offset="0.79" stop-color="#BFBFBF"/>
<stop offset="0.85" stop-color="#AAAAAA"/>
<stop offset="0.98" stop-color="#777777"/>
<stop offset="1" stop-color="#6E6E6E"/>
</linearGradient>
<linearGradient id="paint6_linear_4288_75789" x1="54.5967" y1="78.1988" x2="54.5967" y2="77.0079" gradientUnits="userSpaceOnUse">
<stop stop-color="#717171"/>
<stop offset="0.28" stop-color="#E6E6E6"/>
<stop offset="0.33" stop-color="#E1E1E1"/>
<stop offset="0.39" stop-color="#D5D5D5"/>
<stop offset="0.44" stop-color="#C1C1C1"/>
<stop offset="0.5" stop-color="#A5A5A5"/>
<stop offset="0.56" stop-color="#818181"/>
<stop offset="0.58" stop-color="#6E6E6E"/>
<stop offset="0.64" stop-color="#8D8D8D"/>
<stop offset="0.7" stop-color="#A8A8A8"/>
<stop offset="0.75" stop-color="#B9B9B9"/>
<stop offset="0.79" stop-color="#BFBFBF"/>
<stop offset="0.85" stop-color="#AAAAAA"/>
<stop offset="0.98" stop-color="#777777"/>
<stop offset="1" stop-color="#6E6E6E"/>
</linearGradient>
<linearGradient id="paint7_linear_4288_75789" x1="50.842" y1="76.512" x2="50.0807" y2="81.3278" gradientUnits="userSpaceOnUse">
<stop stop-color="#32323F"/>
<stop offset="0.25" stop-color="#282732"/>
<stop offset="0.66" stop-color="#1E1C23"/>
<stop offset="1" stop-color="#1B181E"/>
</linearGradient>
<linearGradient id="paint8_linear_4288_75789" x1="58.2811" y1="76.4197" x2="58.9817" y2="80.851" gradientUnits="userSpaceOnUse">
<stop stop-color="#32323F"/>
<stop offset="0.25" stop-color="#282732"/>
<stop offset="0.66" stop-color="#1E1C23"/>
<stop offset="1" stop-color="#1B181E"/>
</linearGradient>
<linearGradient id="paint9_linear_4288_75789" x1="54.3847" y1="67.68" x2="54.3847" y2="50.0678" gradientUnits="userSpaceOnUse">
<stop offset="0.02" stop-color="#D7D1FD"/>
<stop offset="1" stop-color="white"/>
</linearGradient>
<linearGradient id="paint10_linear_4288_75789" x1="51.7739" y1="55.1635" x2="57.4735" y2="81.5957" gradientUnits="userSpaceOnUse">
<stop stop-color="#32323F"/>
<stop offset="0.25" stop-color="#282732"/>
<stop offset="0.66" stop-color="#1E1C23"/>
<stop offset="1" stop-color="#1B181E"/>
</linearGradient>
<linearGradient id="paint11_linear_4288_75789" x1="53.3379" y1="54.0669" x2="61.5241" y2="69.6386" gradientUnits="userSpaceOnUse">
<stop stop-color="#32323F"/>
<stop offset="0.25" stop-color="#282732"/>
<stop offset="0.66" stop-color="#1E1C23"/>
<stop offset="1" stop-color="#1B181E"/>
</linearGradient>
<linearGradient id="paint12_linear_4288_75789" x1="52.8815" y1="58.023" x2="52.8815" y2="53.0343" gradientUnits="userSpaceOnUse">
<stop offset="0.02" stop-color="#D7D1FD"/>
<stop offset="1" stop-color="white"/>
</linearGradient>
<linearGradient id="paint13_linear_4288_75789" x1="55.9109" y1="58.0218" x2="55.9109" y2="53.0419" gradientUnits="userSpaceOnUse">
<stop offset="0.02" stop-color="#D7D1FD"/>
<stop offset="1" stop-color="white"/>
</linearGradient>
<linearGradient id="paint14_linear_4288_75789" x1="41.1587" y1="62.326" x2="48.8833" y2="62.326" gradientUnits="userSpaceOnUse">
<stop stop-color="#32323F"/>
<stop offset="0.25" stop-color="#282732"/>
<stop offset="0.66" stop-color="#1E1C23"/>
<stop offset="1" stop-color="#1B181E"/>
</linearGradient>
<linearGradient id="paint15_linear_4288_75789" x1="40.5482" y1="60.2991" x2="48.6273" y2="70.0322" gradientUnits="userSpaceOnUse">
<stop stop-color="#32323F"/>
<stop offset="0.25" stop-color="#282732"/>
<stop offset="0.66" stop-color="#1E1C23"/>
<stop offset="1" stop-color="#1B181E"/>
</linearGradient>
<linearGradient id="paint16_linear_4288_75789" x1="43.1398" y1="49.7629" x2="43.4521" y2="59.3399" gradientUnits="userSpaceOnUse">
<stop offset="0.02" stop-color="#FDC0A7"/>
<stop offset="1" stop-color="#FC9393"/>
</linearGradient>
<linearGradient id="paint17_linear_4288_75789" x1="42.4459" y1="52.6247" x2="42.6386" y2="58.5317" gradientUnits="userSpaceOnUse">
<stop stop-color="#B060F4"/>
<stop offset="1" stop-color="#FFEADB"/>
</linearGradient>
<linearGradient id="paint18_linear_4288_75789" x1="44.3701" y1="61.0307" x2="44.054" y2="51.3373" gradientUnits="userSpaceOnUse">
<stop stop-color="#B060F4"/>
<stop offset="1" stop-color="#FFEADB"/>
</linearGradient>
<linearGradient id="paint19_linear_4288_75789" x1="44.0982" y1="61.0399" x2="43.7821" y2="51.3457" gradientUnits="userSpaceOnUse">
<stop stop-color="#B060F4"/>
<stop offset="1" stop-color="#FFEADB"/>
</linearGradient>
<linearGradient id="paint20_linear_4288_75789" x1="44.6312" y1="62.1222" x2="44.3151" y2="52.4288" gradientUnits="userSpaceOnUse">
<stop stop-color="#B060F4"/>
<stop offset="1" stop-color="#FFEADB"/>
</linearGradient>
<linearGradient id="paint21_linear_4288_75789" x1="42.4522" y1="57.7923" x2="44.871" y2="73.6369" gradientUnits="userSpaceOnUse">
<stop stop-color="#32323F"/>
<stop offset="0.25" stop-color="#282732"/>
<stop offset="0.66" stop-color="#1E1C23"/>
<stop offset="1" stop-color="#1B181E"/>
</linearGradient>
<linearGradient id="paint22_linear_4288_75789" x1="67.2475" y1="62.326" x2="59.5229" y2="62.326" gradientUnits="userSpaceOnUse">
<stop stop-color="#32323F"/>
<stop offset="0.25" stop-color="#282732"/>
<stop offset="0.66" stop-color="#1E1C23"/>
<stop offset="1" stop-color="#1B181E"/>
</linearGradient>
<linearGradient id="paint23_linear_4288_75789" x1="67.858" y1="60.2991" x2="59.779" y2="70.0322" gradientUnits="userSpaceOnUse">
<stop stop-color="#32323F"/>
<stop offset="0.25" stop-color="#282732"/>
<stop offset="0.66" stop-color="#1E1C23"/>
<stop offset="1" stop-color="#1B181E"/>
</linearGradient>
<linearGradient id="paint24_linear_4288_75789" x1="65.2665" y1="49.7629" x2="64.9542" y2="59.3399" gradientUnits="userSpaceOnUse">
<stop offset="0.02" stop-color="#FDC0A7"/>
<stop offset="1" stop-color="#FC9393"/>
</linearGradient>
<linearGradient id="paint25_linear_4288_75789" x1="65.9603" y1="52.6247" x2="65.7677" y2="58.5317" gradientUnits="userSpaceOnUse">
<stop stop-color="#B060F4"/>
<stop offset="1" stop-color="#FFEADB"/>
</linearGradient>
<linearGradient id="paint26_linear_4288_75789" x1="64.0361" y1="61.0307" x2="64.3522" y2="51.3373" gradientUnits="userSpaceOnUse">
<stop stop-color="#B060F4"/>
<stop offset="1" stop-color="#FFEADB"/>
</linearGradient>
<linearGradient id="paint27_linear_4288_75789" x1="64.308" y1="61.0399" x2="64.6242" y2="51.3457" gradientUnits="userSpaceOnUse">
<stop stop-color="#B060F4"/>
<stop offset="1" stop-color="#FFEADB"/>
</linearGradient>
<linearGradient id="paint28_linear_4288_75789" x1="63.775" y1="62.1222" x2="64.0911" y2="52.4288" gradientUnits="userSpaceOnUse">
<stop stop-color="#B060F4"/>
<stop offset="1" stop-color="#FFEADB"/>
</linearGradient>
<linearGradient id="paint29_linear_4288_75789" x1="65.9541" y1="57.7923" x2="63.5352" y2="73.6369" gradientUnits="userSpaceOnUse">
<stop stop-color="#32323F"/>
<stop offset="0.25" stop-color="#282732"/>
<stop offset="0.66" stop-color="#1E1C23"/>
<stop offset="1" stop-color="#1B181E"/>
</linearGradient>
<linearGradient id="paint30_linear_4288_75789" x1="38.4485" y1="48.9434" x2="67.1355" y2="109.821" gradientUnits="userSpaceOnUse">
<stop stop-color="#32323F"/>
<stop offset="0.25" stop-color="#282732"/>
<stop offset="0.66" stop-color="#1E1C23"/>
<stop offset="1" stop-color="#1B181E"/>
</linearGradient>
<linearGradient id="paint31_linear_4288_75789" x1="47.0859" y1="44.884" x2="75.7653" y2="105.745" gradientUnits="userSpaceOnUse">
<stop stop-color="#32323F"/>
<stop offset="0.25" stop-color="#282732"/>
<stop offset="0.66" stop-color="#1E1C23"/>
<stop offset="1" stop-color="#1B181E"/>
</linearGradient>
<linearGradient id="paint32_linear_4288_75789" x1="44.837" y1="42.57" x2="59.86" y2="84.6405" gradientUnits="userSpaceOnUse">
<stop stop-color="#32323F"/>
<stop offset="0.25" stop-color="#282732"/>
<stop offset="0.66" stop-color="#1E1C23"/>
<stop offset="1" stop-color="#1B181E"/>
</linearGradient>
<linearGradient id="paint33_linear_4288_75789" x1="48.2388" y1="40.3808" x2="63.2617" y2="82.4514" gradientUnits="userSpaceOnUse">
<stop stop-color="#32323F"/>
<stop offset="0.25" stop-color="#282732"/>
<stop offset="0.66" stop-color="#1E1C23"/>
<stop offset="1" stop-color="#1B181E"/>
</linearGradient>
<linearGradient id="paint34_linear_4288_75789" x1="52.4218" y1="44.0757" x2="57.68" y2="55.2485" gradientUnits="userSpaceOnUse">
<stop offset="0.02" stop-color="#FDC0A7"/>
<stop offset="1" stop-color="#FC9393"/>
</linearGradient>
<linearGradient id="paint35_linear_4288_75789" x1="50.9192" y1="41.4715" x2="56.7637" y2="48.5484" gradientUnits="userSpaceOnUse">
<stop stop-color="#343330"/>
<stop offset="0.99" stop-color="#1A1917"/>
</linearGradient>
<linearGradient id="paint36_linear_4288_75789" x1="50.9198" y1="41.4715" x2="56.7635" y2="48.5484" gradientUnits="userSpaceOnUse">
<stop offset="0.01" stop-color="#BE6888"/>
<stop offset="1" stop-color="#8E81F4"/>
</linearGradient>
<linearGradient id="paint37_linear_4288_75789" x1="52.2773" y1="41.2869" x2="52.2791" y2="41.2869" gradientUnits="userSpaceOnUse">
<stop offset="0.01" stop-color="#BE6888"/>
<stop offset="1" stop-color="#8E81F4"/>
</linearGradient>
<linearGradient id="paint38_linear_4288_75789" x1="51.1818" y1="44.9717" x2="59.3861" y2="44.9717" gradientUnits="userSpaceOnUse">
<stop offset="0.01" stop-color="#BE6888"/>
<stop offset="1" stop-color="#8E81F4"/>
</linearGradient>
<linearGradient id="paint39_linear_4288_75789" x1="50.4041" y1="49.473" x2="50.4769" y2="46.7383" gradientUnits="userSpaceOnUse">
<stop offset="0.02" stop-color="#FDC0A7"/>
<stop offset="1" stop-color="#FC9393"/>
</linearGradient>
<linearGradient id="paint40_linear_4288_75789" x1="58.2967" y1="49.5942" x2="58.2967" y2="46.8595" gradientUnits="userSpaceOnUse">
<stop offset="0.02" stop-color="#FDC0A7"/>
<stop offset="1" stop-color="#FC9393"/>
</linearGradient>
<linearGradient id="paint41_linear_4288_75789" x1="54.3209" y1="46.5115" x2="52.9283" y2="48.1702" gradientUnits="userSpaceOnUse">
<stop stop-color="#FFEADB"/>
<stop offset="0.99" stop-color="#B060F4"/>
</linearGradient>
<linearGradient id="paint42_linear_4288_75789" x1="58.1559" y1="46.1315" x2="59.5476" y2="47.7908" gradientUnits="userSpaceOnUse">
<stop stop-color="#FFEADB"/>
<stop offset="0.99" stop-color="#B060F4"/>
</linearGradient>
</defs>
</svg>
