<svg width="24" height="24" viewBox="0 0 24 24" fill="none" xmlns="http://www.w3.org/2000/svg">
<path d="M2.64868 20.9773C2.70972 20.9932 2.77096 21 2.83199 21C3.14755 21 3.44865 20.813 3.59209 20.5203C5.15418 17.3531 8.29547 15.3851 11.791 15.3851H13.1109V19.0442C13.1109 19.3887 13.3177 19.6983 13.6332 19.8278C13.9453 19.9552 14.3087 19.8785 14.5443 19.6297L21.7666 12.0299C22.0776 11.7033 22.0776 11.1855 21.7666 10.8589L14.5443 3.25914C14.3087 3.01031 13.9475 2.93279 13.6332 3.06102C13.3177 3.19049 13.1109 3.50014 13.1109 3.84463V7.50392H12.8332C6.85992 7.50392 1.99988 12.4286 1.99988 18.4814V20.1702C1.99988 20.5619 2.2721 20.8885 2.64868 20.9773Z" stroke="#6C6868" stroke-width="1.5"/>
</svg>
